<?xml version="1.0" standalone="no"?>
<!DOCTYPE svg PUBLIC "-//W3C//DTD SVG 1.1//EN" "http://www.w3.org/Graphics/SVG/1.1/DTD/svg11.dtd" >
<svg>
<metadata>
Created by FontForge 20090622 at Wed Jun 15 13:10:50 2016
 By deploy user
Generated by Fontographer 4.1
</metadata>
<defs>
<font id="F_aram" horiz-adv-x="0" >
  <font-face 
    font-family="F_aram"
    font-weight="400"
    font-stretch="normal"
    units-per-em="1100"
    panose-1="0 0 0 0 0 0 0 0 0 0"
    ascent="880"
    descent="-220"
    x-height="200"
    cap-height="468"
    bbox="-1226 -760 1277 1118"
    underline-thickness="50"
    underline-position="-225"
    unicode-range="U+0001-U+2122"
  />
<missing-glyph horiz-adv-x="1118" 
d="M69 0v1118h980v-1118h-980zM980 69v980h-842v-980h842z" />
    <glyph glyph-name=".notdef" horiz-adv-x="1118" 
d="M69 0v1118h980v-1118h-980zM980 69v980h-842v-980h842z" />
    <glyph glyph-name=".null" 
 />
    <glyph glyph-name="nonmarkingreturn" horiz-adv-x="296" 
 />
    <glyph glyph-name="space" unicode=" " horiz-adv-x="296" 
 />
    <glyph glyph-name="exclam" unicode="!" horiz-adv-x="265" 
d="M265 186h-145v470h145v-470zM264 64q0 -28 -21 -51q-10 -10 -23 -16t-29 -6q-27 0 -51 21q-9 9 -15.5 22t-6.5 30q0 30 21 51t52 21q30 0 51.5 -20.5t21.5 -51.5z" />
    <glyph glyph-name="quotedbl" unicode="&#x22;" horiz-adv-x="1012" 
d="M859 465l-65 -65l-6 -2l-5 2l-65 65l-2 6l2 5l70 69l6 -4l65 -65q6 -3 0 -11zM859 341q6 -6 0 -13l-65 -59q-3 -3 -11 0l-64 59l-3 7l2 6l64 71q6 6 12 0zM861 202q-29 -90 -130 -135v-60q-4 -6 -8 -8h-48q-15 0 -41 21l-42 41q-37 -31 -124 -49l-74 -13q-6 4 -8 8v93
q0 12 15 17l3 -5l8 -3q6 -1 7 -2l35 4q54 6 79 28q-44 58 -56 135l5 8l34 27l35 30q3 6 9 4l5 -9q0 -93 79 -188q5 3 5 34v226l3 5l66 65q3 5 9 3l4 -8v-291q0 -23 12 -34h39l3 1l-14 16q-21 24 -50 33l-5 6l3 8l63 71q3 3 10 1q23 -11 68 -73zM470 103q0 -12 -37 -12h-21
q-21 0 -26 9l3 376l67 65q3 6 9 4l5 -9v-433zM293 401l-65 -72l-6 -3l-7 3l-65 72q-3 5 2 10l66 65l3 4l8 -4l65 -65l3 -5zM402 69q-25 -34 -69 -68l-9 1q-153 144 -175 271l5 9l28 27l36 30q3 6 9 4l4 -9q0 -89 78 -188q2 5 4.5 12t6.5 22v226l4 5l65 65q3 3 10 3l4 -8z
M842 471l-54 55l-54 -55l54 -53zM842 336l-54 58l-54 -58l54 -50zM844 202q-29 43 -54 62l-54 -57q21 -9 46 -34q15 -15 16 -29q0 -11 -16 -14h-42q-26 12 -26 50v272l-48 -50v-222q0 -50 -27 -50l-5 3q-85 103 -85 185l-23 -20l-33 -27q12 -66 58 -128q5 -3 -1 -10
q-23 -24 -94 -38l-30 -2h-23v-76l63 10q79 12 121 51q3 6 10 0l48 -47q15 -15 30 -15h39v57q0 6 5 7q92 39 125 122zM453 110v407l-50 -50v-354q0 -6 16 -7h14zM277 405l-56 55l-52 -55l52 -58zM386 75v377l-48 -50l-1 -223q-9 -49 -33 -49l-5 3q-84 99 -84 185l-22 -23
l-28 -25q21 -112 165 -253q16 13 56 58z" />
    <glyph glyph-name="numbersign" unicode="#" horiz-adv-x="296" 
 />
    <glyph glyph-name="dollar" unicode="$" horiz-adv-x="764" 
d="M536 628h-49v155h49v-155zM638 521q0 -21 -14.5 -35.5t-34.5 -14.5h-53q-11 0 -25 7q-7 -6 -23 -7h-53q-17 0 -35 15q-14 16 -14 35v50h49v-23q0 -27 25 -27q26 0 26 27v23h51v-23q0 -27 26 -27t26 27v23h49v-50zM764 209q0 -209 -155 -209q-73 0 -103 39
q-29 -39 -103 -39q-78 0 -113 50q-26 41 -26 129v21l-3 23q-1 9 -13 10l-52 -42l61 -45l-70 -70l-83 55v97l122 109l36 3q97 0 97 -105v-82q0 -53 49 -53q18 0 38 15q16 16 16 38v256h100v-256q0 -53 51 -53q52 0 52 53v306h99v-250z" />
    <glyph glyph-name="percent" unicode="%" horiz-adv-x="578" 
d="M234 787q0 -30 -18.5 -51t-51.5 -21q-26 0 -48.5 21.5t-22.5 50.5q0 26 21 47t50 21t49 -20q21 -18 21 -48zM509 855l-379 -753h-59l376 753h62zM484 162q0 -26 -21 -50q-22 -20 -50 -20t-48.5 21.5t-20.5 48.5q0 29 20 50.5t49 21.5q27 0 49 -22t22 -50z" />
    <glyph glyph-name="ampersand" unicode="&#x26;" horiz-adv-x="540" 
d="M228 206h85v-84h-85v84zM228 455h85v-83h-85v83zM81 322h379v-67h-379v67z" />
    <glyph glyph-name="quotesingle" unicode="'" horiz-adv-x="554" 
d="M505 367l-113 -114l-39 38l115 113zM353 291h-53v161h53v-161zM553 199h-161v54h161v-54zM505 85l-37 -37l-115 114l39 37zM300 291l-37 -38l-114 114l37 37zM263 199h-162v54h162v-54zM353 0h-53v162h53v-162zM300 162l-114 -114l-37 37l114 114z" />
    <glyph glyph-name="parenleft" unicode="(" horiz-adv-x="247" 
d="M249 447q-73 -97 -73 -228q0 -126 72 -230l-54 -54q-91 115 -91 280q0 169 94 285z" />
    <glyph glyph-name="parenright" unicode=")" horiz-adv-x="250" 
d="M157 -65l-53 54q71 101 71 230q0 131 -73 228l52 53q95 -116 95 -285q0 -166 -92 -280z" />
    <glyph glyph-name="asterisk" unicode="*" horiz-adv-x="540" 
d="M139 113l-48 45l132 132l-132 131l47 46l132 -131l131 131l49 -47l-132 -131l133 -133l-49 -47l-132 134z" />
    <glyph glyph-name="plus" unicode="+" horiz-adv-x="540" 
d="M302 93h-66v162h-155v67h155v162h66v-162h158v-67h-158v-162z" />
    <glyph glyph-name="comma" unicode="," horiz-adv-x="282" 
d="M281 178l-62 -59l55 -61q-43 -43 -88 -43q-33 0 -53 23q-19 25 -19 57q0 33 43 77q17 17 70 60z" />
    <glyph glyph-name="hyphen" unicode="-" horiz-adv-x="482" 
d="M406 275h-341v64h341v-64z" />
    <glyph glyph-name="period" unicode="." horiz-adv-x="660" 
d="M321 129h19q30 0 51.5 -22t21.5 -50t-21 -51q-10 -10 -23 -16t-29 -6h-19q-28 0 -50.5 21.5t-22.5 50.5q0 28 21 51q10 10 23 16t29 6z" />
    <glyph glyph-name="slash" unicode="/" horiz-adv-x="504" 
d="M446 705l-322 -738h-65l321 738h66z" />
    <glyph glyph-name="zero" unicode="0" horiz-adv-x="405" 
d="M285 197h-173v174h173v-174z" />
    <glyph glyph-name="one" unicode="1" horiz-adv-x="246" 
d="M198 -33h-96v475h96v-475z" />
    <glyph glyph-name="two" unicode="2" horiz-adv-x="387" 
d="M387 317q0 -74 -30 -125q-36 -57 -108 -57q-27 0 -51 9v-177h-96v475h96v-112q0 -30 10.5 -61.5t35.5 -31.5q23 0 38 37q9 24 9 56v112h96v-125z" />
    <glyph glyph-name="three" unicode="3" horiz-adv-x="576" 
d="M576 305q0 -68 -35.5 -115t-101.5 -47q-63 0 -93 42q-35 -51 -96 -51q-30 0 -52 11v-178h-96v475h96v-112q0 -30 10.5 -61.5t35.5 -31.5q23 0 38 37q9 24 9 56v112h96v-125q0 -29 11 -54.5t35 -25.5q23 0 38 37q9 24 9 56v112h96v-137z" />
    <glyph glyph-name="four" unicode="4" horiz-adv-x="481" 
d="M481 156h-284v-189h-95v475h95v-190h47q-8 17 -10.5 29.5t-2.5 24.5q0 69 61 106q51 30 125 30h37v-97l-27 -1q-15 0 -36 -7q-41 -12 -41 -39q0 -24 35 -37q24 -9 55 -9h41v-96z" />
    <glyph glyph-name="five" unicode="5" horiz-adv-x="516" 
d="M516 106q0 -57 -28 -100q-32 -48 -87 -48q-45 0 -88 37q-43 -37 -91 -37q-56 0 -90 47q-30 42 -30 101q0 135 119 266l70 -45l-44 -51l-26 -36q-33 -51 -33 -109q0 -24 13 -46.5t35 -22.5q38 0 38 67h78q0 -66 35 -66q20 0 32 22q5 11 8 22t3 24q0 145 -212 270
q23 30 63 66q235 -122 235 -361z" />
    <glyph glyph-name="six" unicode="6" horiz-adv-x="458" 
d="M458 345l-228 -392l-84 49l72 117l-18 -2q-42 0 -72 42q-23 37 -23 83q0 64 38 130l43 75l85 -48l-33 -56q-23 -40 -23 -69q0 -37 30 -37q38 0 73 59l57 97z" />
    <glyph glyph-name="seven" unicode="7" horiz-adv-x="411" 
d="M387 100q0 -58 -42.5 -96t-101.5 -38q-60 0 -100.5 37.5t-40.5 98.5v340h95v-316q0 -62 45 -62q20 0 35 19q13 21 13 43v316h97v-342z" />
    <glyph glyph-name="eight" unicode="8" horiz-adv-x="411" 
d="M387 -33h-97v316q0 24 -12.5 42.5t-35.5 18.5q-45 0 -45 -61v-316h-95v340q0 58 40 96.5t102 38.5q61 0 102 -36.5t41 -97.5v-341z" />
    <glyph glyph-name="nine" unicode="9" horiz-adv-x="403" 
d="M378 -33h-98v166h-178v169q0 56 39 97.5t98 41.5q57 0 98 -39.5t41 -96.5v-338zM280 229v76q0 40 -41 40q-40 0 -40 -42v-74h81z" />
    <glyph glyph-name="colon" unicode=":" horiz-adv-x="254" 
d="M254 69q0 -32 -20 -48q-21 -21 -49 -21t-48 20q-19 22 -19 49q0 30 18.5 48.5t48.5 18.5q57 0 69 -67zM254 243q0 -58 -69 -67q-25 0 -49 20q-18 21 -18 47q0 30 18 51q21 18 49 18q57 0 69 -69z" />
    <glyph glyph-name="semicolon" unicode=";" horiz-adv-x="284" 
d="M281 328l-62 -58l55 -61q-44 -44 -88 -44q-33 0 -53 23q-19 25 -19 57q0 34 43 78l70 59zM250 50q0 -21 -14.5 -35.5t-35.5 -14.5q-20 0 -35 14.5t-15 35.5q0 18 15 34t35 16q18 0 34 -14.5t16 -35.5z" />
    <glyph glyph-name="less" unicode="&#x3c;" horiz-adv-x="448" 
d="M455 6h-36l-228 268l228 264h32l-165 -264zM249 6h-33l-227 268l229 264h31l-165 -264z" />
    <glyph glyph-name="equal" unicode="=" 
d="M214 -50h-217v50h217v-50zM214 -150h-217v50h217v-50z" />
    <glyph glyph-name="greater" unicode="&#x3e;" horiz-adv-x="560" 
d="M512 268l-227 -261h-33l165 261l-170 271h30zM308 268l-225 -261h-33l163 261l-168 271h30z" />
    <glyph glyph-name="question" unicode="?" horiz-adv-x="380" 
d="M380 436l-50 -50q-24 27 -71 27q-39 0 -64 -34q-19 -29 -19 -52q0 -30 21 -59q21 -24 54 -30v-70l-43 -44v54q-107 39 -107 152q0 59 45 105t107 46q59 0 127 -45zM288 50q0 -21 -16 -35.5t-34 -14.5q-21 0 -35.5 15.5t-14.5 34.5q0 21 14.5 35.5t35.5 14.5
q17 0 33.5 -14.5t16.5 -35.5z" />
    <glyph glyph-name="at" unicode="@" horiz-adv-x="235" 
d="M250 0h-269v139h269v-139z" />
    <glyph glyph-name="A" unicode="A" horiz-adv-x="329" 
d="M330 655q-6 -42 -21 -63q-24 -38 -84 -38l-37 4l-35 4q-27 0 -34 -34l-79 14q8 47 20 63q25 37 85 37l35 -4l35 -3q27 0 34 34zM235 0h-100v468h100v-468z" />
    <glyph glyph-name="B" unicode="B" horiz-adv-x="294" 
d="M337 655q-6 -45 -21 -63q-24 -38 -85 -38l-36 4l-35 4q-27 0 -34 -34l-79 14q8 47 20 63q25 37 85 37l35 -4l34 -3q25 0 35 34zM294 0h-52q-41 0 -70 29t-29 70v369h99v-315q0 -20 15.5 -36.5t36.5 -16.5v-100z" />
    <glyph glyph-name="C" unicode="C" horiz-adv-x="245" 
d="M240 559h-187v56h29q-3 33 34 69l59 59l38 -39l-49 -49q-13 -13 -16 -27q0 -13 28 -13h64v-56zM200 0h-100v468h100v-468z" />
    <glyph glyph-name="D" unicode="D" horiz-adv-x="252" 
d="M240 559h-187v56h29q-3 33 34 69l59 59l38 -39l-49 -49q-13 -13 -16 -27q0 -13 28 -13h64v-56zM252 0h-53q-41 0 -70 29q-14 16 -21 32.5t-7 37.5v369h99v-315q0 -20 15.5 -36.5t36.5 -16.5v-100z" />
    <glyph glyph-name="E" unicode="E" 
d="M187 0h-187v56h29q0 34 34 69l59 60l39 -39l-49 -50q-14 -14 -17 -27q0 -13 29 -13h63v-56z" />
    <glyph glyph-name="F" unicode="F" horiz-adv-x="276" 
d="M225 303h-187v56h30q-3 33 34 70l59 59l39 -40l-50 -49q-15 -15 -16 -26q0 -14 28 -14h63v-56zM276 0q-84 0 -120 52q-14 -17 -73 -34.5t-83 -17.5v100q63 0 159 75q30 21 39 25q21 0 24 -25l1 -30q0 -14 4 -19q9 -26 49 -26v-100z" />
    <glyph glyph-name="G" unicode="G" horiz-adv-x="256" 
d="M225 303h-187v56h30q-3 33 34 70l59 59l39 -40l-50 -49q-15 -15 -16 -26q0 -14 28 -14h63v-56zM244 177q12 -27 12 -56q0 -49 -32 -85t-81 -36h-143v100h114q41 0 41 22q0 18 -14 42l-44 86h114z" />
    <glyph glyph-name="H" unicode="H" horiz-adv-x="200" 
d="M200 0h-100v468h100v-468z" />
    <glyph glyph-name="I" unicode="I" horiz-adv-x="252" 
d="M252 0h-53q-41 0 -70 29q-14 16 -21 32.5t-7 37.5v369h99v-315q0 -20 15.5 -36.5t36.5 -16.5v-100z" />
    <glyph glyph-name="J" unicode="J" horiz-adv-x="1060" 
d="M1059 56q-194 -106 -445 -106q-296 0 -513 140v123q97 -79 243 -124q131 -39 270 -39q249 0 445 121v-115zM681 -160q0 -24 -17.5 -42t-42.5 -18q-23 0 -41.5 17.5t-18.5 42.5t17 43q19 17 43 17q25 0 42.5 -17.5t17.5 -42.5z" />
    <glyph glyph-name="K" unicode="K" horiz-adv-x="1186" 
d="M1186 0q-101 0 -125 60q-50 -37 -158 -69q-143 -41 -289 -41q-296 0 -513 140v123q97 -80 242 -123q69 -20 135 -30t135 -10q243 0 431 112l62 38q10 0 20 -25q11 -40 16 -49q15 -26 44 -26v-100zM681 -160q0 -24 -17.5 -42t-42.5 -18q-23 0 -41.5 17.5t-18.5 42.5t17 43
q19 17 43 17q25 0 42.5 -17.5t17.5 -42.5z" />
    <glyph glyph-name="L" unicode="L" horiz-adv-x="276" 
d="M276 0q-84 0 -120 52q-14 -17 -73 -34.5t-83 -17.5v100q63 0 159 75q30 21 39 25q21 0 24 -25l1 -30q0 -14 4 -19q9 -26 49 -26v-100zM184 -160q0 -24 -18 -42t-42 -18q-23 0 -42 17.5t-19 42.5t17 43q19 17 44 17t42.5 -17.5t17.5 -42.5z" />
    <glyph glyph-name="M" unicode="M" horiz-adv-x="257" 
d="M244 177q12 -27 12 -56q0 -49 -32 -85t-81 -36h-143v100h114q41 0 41 22q0 18 -14 42l-44 86h114zM193 -160q0 -25 -17 -42.5t-42 -17.5q-23 0 -41.5 17.5t-18.5 42.5t17 43q19 17 43 17t41.5 -18.5t17.5 -41.5z" />
    <glyph glyph-name="N" unicode="N" horiz-adv-x="1059" 
d="M1059 56q-194 -106 -445 -106q-296 0 -513 140v123q97 -79 243 -124q131 -39 270 -39q249 0 445 121v-115zM686 -292q0 -24 -17.5 -42t-42.5 -18q-26 0 -43 17t-17 43q0 25 17 43q19 17 43 17q25 0 42.5 -17.5t17.5 -42.5zM756 -160q0 -24 -17.5 -42t-42.5 -18
q-22 0 -41 17.5t-19 42.5t17 43q19 17 43 17q25 0 42.5 -17.5t17.5 -42.5zM619 -160q0 -24 -17.5 -42t-42.5 -18q-22 0 -41 17.5t-19 42.5t17 43q19 17 43 17q25 0 42.5 -17.5t17.5 -42.5z" />
    <glyph glyph-name="O" unicode="O" horiz-adv-x="1186" 
d="M1186 0q-101 0 -125 60q-50 -37 -158 -69q-143 -41 -289 -41q-296 0 -513 140v123q97 -80 242 -123q69 -20 135 -30t135 -10q243 0 431 112l62 38q10 0 20 -25q11 -40 16 -49q15 -26 44 -26v-100zM686 -292q0 -24 -17.5 -42t-42.5 -18q-26 0 -43 17t-17 43q0 25 17 43
q19 17 43 17q25 0 42.5 -17.5t17.5 -42.5zM756 -160q0 -24 -17.5 -42t-42.5 -18q-22 0 -41 17.5t-19 42.5t17 43q19 17 43 17q25 0 42.5 -17.5t17.5 -42.5zM619 -160q0 -24 -17.5 -42t-42.5 -18q-22 0 -41 17.5t-19 42.5t17 43q19 17 43 17q25 0 42.5 -17.5t17.5 -42.5z" />
    <glyph glyph-name="P" unicode="P" horiz-adv-x="276" 
d="M276 0q-84 0 -120 52q-14 -17 -73 -34.5t-83 -17.5v100q63 0 159 75q30 21 39 25q21 0 24 -25l1 -30q0 -14 4 -19q9 -26 49 -26v-100zM264 -160q0 -24 -17.5 -42t-42.5 -18q-23 0 -42 17.5t-19 42.5q0 22 18 43q19 17 43 17q25 0 42.5 -17.5t17.5 -42.5zM127 -160
q0 -24 -17.5 -42t-42.5 -18q-23 0 -42 17.5t-19 42.5q0 22 18 43q19 17 43 17q25 0 42.5 -17.5t17.5 -42.5zM193 -292q0 -25 -17 -42.5t-42 -17.5q-22 0 -41 17.5t-19 42.5t17 42.5t43 17.5q24 0 41.5 -18.5t17.5 -41.5z" />
    <glyph glyph-name="Q" unicode="Q" horiz-adv-x="284" 
d="M244 177q12 -27 12 -56q0 -49 -32 -85t-81 -36h-143v100h114q41 0 41 22q0 18 -14 42l-44 86h114zM284 -160q0 -24 -17.5 -42t-42.5 -18q-22 0 -41 17.5t-19 42.5t17 43q19 17 43 17q25 0 42.5 -17.5t17.5 -42.5zM147 -160q0 -24 -17.5 -42t-42.5 -18q-22 0 -41 17.5
t-19 42.5t17 43q19 17 43 17q25 0 42.5 -17.5t17.5 -42.5zM214 -292q0 -24 -17.5 -42t-42.5 -18q-22 0 -41.5 17.5t-19.5 42.5q0 22 18 43q19 17 43 17q25 0 42.5 -17.5t17.5 -42.5z" />
    <glyph glyph-name="R" unicode="R" horiz-adv-x="1060" 
d="M729 360q0 -24 -17.5 -42t-42.5 -18q-22 0 -43 18q-17 19 -17 42q0 26 17.5 43.5t42.5 17.5q24 0 42 -17.5t18 -43.5zM592 360q0 -24 -17.5 -42t-42.5 -18q-22 0 -43 18q-17 19 -17 42q0 26 17.5 43.5t42.5 17.5q24 0 42 -17.5t18 -43.5zM1060 56q-194 -106 -445 -106
q-296 0 -513 140v123q97 -79 243 -124q129 -39 270 -39q249 0 445 121v-115z" />
    <glyph glyph-name="S" unicode="S" horiz-adv-x="1186" 
d="M779 360q0 -24 -17.5 -42t-42.5 -18t-43 17q-17 19 -17 43q0 26 17.5 43.5t42.5 17.5q24 0 42 -17.5t18 -43.5zM642 360q0 -24 -17.5 -42t-41.5 -18q-25 0 -43 17.5t-18 42.5q0 26 17.5 43.5t43.5 17.5q23 0 41 -18.5t18 -42.5zM1186 0q-101 0 -125 60q-50 -37 -158 -69
q-143 -41 -289 -41q-296 0 -513 140v123q97 -80 242 -123q69 -20 135 -30t135 -10q243 0 431 112l62 38q10 0 20 -25q11 -40 16 -49q15 -26 44 -26v-100z" />
    <glyph glyph-name="T" unicode="T" horiz-adv-x="276" 
d="M271 360q0 -24 -18 -42t-43 -18q-22 0 -43 18q-17 19 -17 42q0 26 17.5 43.5t42.5 17.5q22 0 41.5 -17.5t19.5 -43.5zM134 360q0 -24 -18 -42t-42 -18q-26 0 -44 17q-17 19 -17 43q0 26 17.5 43.5t43.5 17.5q24 0 42 -18t18 -43zM276 0q-84 0 -120 52q-14 -17 -73 -34.5
t-83 -17.5v100q63 0 159 75q30 21 39 25q21 0 24 -25l1 -30q0 -14 4 -19q9 -26 49 -26v-100z" />
    <glyph glyph-name="U" unicode="U" horiz-adv-x="271" 
d="M271 360q0 -24 -18 -42t-43 -18q-22 0 -43 18q-17 19 -17 42q0 26 17.5 43.5t42.5 17.5q22 0 41.5 -17.5t19.5 -43.5zM134 360q0 -24 -18 -42t-42 -18q-26 0 -44 17q-17 19 -17 43q0 26 17.5 43.5t43.5 17.5q24 0 42 -18t18 -43zM244 177q12 -27 12 -56q0 -49 -32 -85
t-81 -36h-143v100h114q41 0 41 22q0 18 -14 42l-44 86h114z" />
    <glyph glyph-name="V" unicode="V" horiz-adv-x="1060" 
d="M659 492q0 -22 -17.5 -41t-42.5 -19t-43 17q-17 19 -17 43q0 25 17.5 43t42.5 18q24 0 42 -18t18 -43zM729 360q0 -24 -17.5 -42t-42.5 -18q-22 0 -43 18q-17 19 -17 42q0 26 17.5 43.5t42.5 17.5q24 0 42 -17.5t18 -43.5zM592 360q0 -24 -17.5 -42t-42.5 -18
q-22 0 -43 18q-17 19 -17 42q0 26 17.5 43.5t42.5 17.5q24 0 42 -17.5t18 -43.5zM1059 56q-194 -106 -445 -106q-296 0 -513 140v123q97 -79 243 -124q131 -39 270 -39q249 0 445 121v-115z" />
    <glyph glyph-name="W" unicode="W" horiz-adv-x="1186" 
d="M659 492q0 -22 -17.5 -41t-42.5 -19t-43 17q-17 19 -17 43q0 25 17.5 43t42.5 18q24 0 42 -18t18 -43zM729 360q0 -24 -17.5 -42t-42.5 -18q-22 0 -43 18q-17 19 -17 42q0 26 17.5 43.5t42.5 17.5q24 0 42 -17.5t18 -43.5zM592 360q0 -24 -17.5 -42t-42.5 -18
q-22 0 -43 18q-17 19 -17 42q0 26 17.5 43.5t42.5 17.5q24 0 42 -17.5t18 -43.5zM1186 0q-101 0 -125 60q-50 -37 -158 -69q-143 -41 -289 -41q-296 0 -513 140v123q97 -80 242 -123q69 -20 135 -30t135 -10q243 0 431 112l62 38q10 0 20 -25q11 -40 16 -49q15 -26 44 -26
v-100z" />
    <glyph glyph-name="X" unicode="X" horiz-adv-x="276" 
d="M197 492q0 -22 -17.5 -41t-42.5 -19t-43 17q-17 19 -17 43q0 25 17.5 43t42.5 18q24 0 42 -18t18 -43zM267 360q0 -24 -17.5 -42t-42.5 -18q-22 0 -43 18q-17 19 -17 42q0 26 17.5 43.5t42.5 17.5q24 0 42 -17.5t18 -43.5zM130 360q0 -24 -17.5 -42t-42.5 -18
q-22 0 -43 18q-17 19 -17 42q0 26 17.5 43.5t42.5 17.5q24 0 42 -17.5t18 -43.5zM276 0q-84 0 -120 52q-14 -17 -73 -34.5t-83 -17.5v100q63 0 159 75q30 21 39 25q21 0 24 -25l1 -30q0 -14 4 -19q9 -26 49 -26v-100z" />
    <glyph glyph-name="Y" unicode="Y" horiz-adv-x="267" 
d="M197 492q0 -22 -17.5 -41t-42.5 -19t-43 17q-17 19 -17 43q0 25 17.5 43t42.5 18q24 0 42 -18t18 -43zM267 360q0 -24 -17.5 -42t-42.5 -18q-22 0 -43 18q-17 19 -17 42q0 26 17.5 43.5t42.5 17.5q24 0 42 -17.5t18 -43.5zM130 360q0 -24 -17.5 -42t-42.5 -18
q-22 0 -43 18q-17 19 -17 42q0 26 17.5 43.5t42.5 17.5q24 0 42 -17.5t18 -43.5zM244 177q12 -27 12 -56q0 -49 -32 -85t-81 -36h-143v100h114q41 0 41 22q0 18 -14 42l-44 86h114z" />
    <glyph glyph-name="Z" unicode="Z" horiz-adv-x="440" 
d="M407 -121q0 -22 -18.5 -41.5t-42.5 -19.5t-41.5 17.5t-17.5 43.5q0 25 17 42.5t42 17.5q22 0 41.5 -18.5t19.5 -41.5zM254 122l-126 125l77 76l228 -230l-75 -74l-34 31q-125 -134 -125 -181q0 -75 88 -109q28 -9 68 -15q27 -3 41 -4t44 -1v-102q-189 0 -278 83
q-62 57 -62 131q0 110 154 270z" />
    <glyph glyph-name="bracketleft" unicode="[" horiz-adv-x="508" 
d="M403 -115q0 -24 -17.5 -42t-42.5 -18t-42.5 17t-17.5 43q0 25 17 43q19 17 43 17t42 -18t18 -42zM252 124l-124 124l76 76l181 -180q42 -44 123 -44v-100q-72 0 -100 8q-45 9 -83 41q-126 -120 -126 -178q0 -75 89 -109q28 -9 68 -15q27 -3 41 -4t43 -1v-102
q-189 0 -278 83q-62 57 -62 131q0 64 54 148q29 44 98 122z" />
    <glyph glyph-name="backslash" unicode="\" horiz-adv-x="375" 
d="M222 -160q0 -24 -17.5 -42t-42.5 -18q-22 0 -41 17.5t-19 42.5t17 42.5t43 17.5q25 0 42.5 -17.5t17.5 -42.5zM375 0h-375v100h223l-146 147l76 76l222 -223v-100z" />
    <glyph glyph-name="bracketright" unicode="]" horiz-adv-x="375" 
d="M222 -160q0 -24 -17.5 -42t-42.5 -18q-22 0 -41 17.5t-19 42.5t17 42.5t43 17.5q25 0 42.5 -17.5t17.5 -42.5zM375 0h-375v100h223l-146 147l76 76l222 -223v-100z" />
    <glyph glyph-name="asciicircum" unicode="^" horiz-adv-x="475" 
d="M418 -184q0 -20 -14 -34.5t-34 -14.5q-17 0 -33 14.5t-16 34.5t15.5 34.5t33.5 14.5q19 0 33.5 -15.5t14.5 -33.5zM365 -77q0 -17 -14.5 -33t-34.5 -16t-34.5 14t-14.5 35q0 20 14 35q16 14 35 14q20 0 34.5 -15.5t14.5 -33.5zM475 -77q0 -20 -14 -34.5t-34 -14.5
q-21 0 -35 14t-14 35q0 20 14 34.5t35 14.5q19 0 33.5 -15.5t14.5 -33.5zM254 122l-126 125l77 76l228 -230l-75 -74l-34 31q-125 -134 -125 -181q0 -75 88 -109q28 -9 68 -15q27 -3 41 -4t44 -1v-102q-189 0 -278 83q-62 57 -62 131q0 110 154 270z" />
    <glyph glyph-name="underscore" unicode="_" horiz-adv-x="508" 
d="M419 -178q0 -20 -14 -34.5t-35 -14.5q-17 0 -32.5 14.5t-15.5 34.5t14 34.5t34 14.5t34.5 -14.5t14.5 -34.5zM365 -71q0 -21 -14 -35t-35 -14q-20 0 -34.5 14t-14.5 35q0 19 15.5 33.5t33.5 14.5q21 0 35 -14t14 -34zM475 -71q0 -20 -14 -34q-12 -15 -33 -15t-35 14
t-14 35q0 20 14 34t35 14q18 0 32.5 -15.5t14.5 -32.5zM252 124l-124 124l76 76l181 -180q42 -44 123 -44v-100q-72 0 -100 8q-45 9 -83 41q-126 -120 -126 -178q0 -75 89 -109q28 -9 68 -15q27 -3 41 -4t43 -1v-102q-189 0 -278 83q-62 57 -62 131q0 64 54 148
q29 44 98 122z" />
    <glyph glyph-name="grave" unicode="`" horiz-adv-x="375" 
d="M306 -160q0 -24 -18 -42t-43 -18q-22 0 -41 17.5t-19 42.5t17 43q19 17 43 17q25 0 43 -17.5t18 -42.5zM169 -160q0 -24 -18 -42t-43 -18q-22 0 -41 17.5t-19 42.5t17 43q19 17 43 17q25 0 43 -17.5t18 -42.5zM235 -292q0 -24 -17.5 -42t-42.5 -18q-22 0 -41 17.5
t-19 42.5t17 43q19 17 43 17q25 0 42.5 -17.5t17.5 -42.5zM375 0h-375v100h223l-146 147l76 76l222 -223v-100z" />
    <glyph glyph-name="a" unicode="a" horiz-adv-x="375" 
d="M306 -160q0 -24 -18 -42t-43 -18q-22 0 -41 17.5t-19 42.5t17 43q19 17 43 17q25 0 43 -17.5t18 -42.5zM169 -160q0 -24 -18 -42t-43 -18q-22 0 -41 17.5t-19 42.5t17 43q19 17 43 17q25 0 43 -17.5t18 -42.5zM235 -292q0 -24 -17.5 -42t-42.5 -18q-22 0 -41 17.5
t-19 42.5t17 43q19 17 43 17q25 0 42.5 -17.5t17.5 -42.5zM375 0h-375v100h223l-146 147l76 76l222 -223v-100z" />
    <glyph glyph-name="b" unicode="b" horiz-adv-x="440" 
d="M254 122l-126 125l77 76l228 -230l-75 -74l-34 31q-125 -134 -125 -181q0 -75 88 -109q28 -9 68 -15q27 -3 41 -4t44 -1v-102q-189 0 -278 83q-62 57 -62 131q0 110 154 270z" />
    <glyph glyph-name="c" unicode="c" horiz-adv-x="508" 
d="M252 124l-124 124l76 76l181 -180q42 -44 123 -44v-100q-72 0 -100 8q-45 9 -83 41q-126 -120 -126 -178q0 -75 89 -109q28 -9 68 -15q27 -3 41 -4t43 -1v-102q-189 0 -278 83q-62 57 -62 131q0 64 54 148q29 44 98 122z" />
    <glyph glyph-name="d" unicode="d" horiz-adv-x="375" 
d="M375 0h-375v100h223l-146 147l76 76l222 -223v-100z" />
    <glyph glyph-name="e" unicode="e" horiz-adv-x="375" 
d="M375 0h-375v100h223l-146 147l76 76l222 -223v-100z" />
    <glyph glyph-name="f" unicode="f" horiz-adv-x="440" 
d="M324 401q0 -22 -17.5 -41.5t-42.5 -19.5t-43 17q-17 19 -17 44q0 24 18.5 41.5t41.5 17.5q24 0 42 -17.5t18 -41.5zM254 122l-126 125l77 76l228 -230l-75 -74l-34 31q-125 -134 -125 -181q0 -75 88 -109q28 -9 68 -15q27 -3 41 -4t44 -1v-102q-189 0 -278 83
q-62 57 -62 131q0 110 154 270z" />
    <glyph glyph-name="g" unicode="g" horiz-adv-x="508" 
d="M325 401q0 -22 -18.5 -41.5t-42.5 -19.5t-41.5 18.5t-17.5 42.5q0 25 17 42t42 17t43 -17t18 -42zM252 124l-124 124l76 76l181 -180q42 -44 123 -44v-100q-72 0 -100 8q-45 9 -83 41q-126 -120 -126 -178q0 -75 89 -109q28 -9 68 -15q27 -3 41 -4t43 -1v-102
q-189 0 -278 83q-62 57 -62 131q0 64 54 148q29 44 98 122z" />
    <glyph glyph-name="h" unicode="h" horiz-adv-x="375" 
d="M375 0h-375v100h223l-146 147l76 76l222 -223v-100zM272 401q0 -22 -17.5 -41.5t-42.5 -19.5q-24 0 -41.5 18.5t-17.5 42.5q0 25 17 42t42 17t42.5 -17t17.5 -42z" />
    <glyph glyph-name="i" unicode="i" horiz-adv-x="375" 
d="M375 0h-375v100h223l-146 147l76 76l222 -223v-100zM273 392q0 -22 -17.5 -41.5t-42.5 -19.5q-24 0 -41.5 18.5t-17.5 42.5q0 25 17 42t42 17t42.5 -17t17.5 -42z" />
    <glyph glyph-name="j" unicode="j" horiz-adv-x="395" 
d="M375 36q-94 -136 -274 -136v100q124 0 182 79q-55 61 -105 161l70 69l53 -80q42 -65 74 -98q9 -9 15 -21q3 -7 5 -22q0 -23 -20 -52z" />
    <glyph glyph-name="k" unicode="k" horiz-adv-x="424" 
d="M424 0q-27 0 -63 18q-38 -56 -104 -87t-156 -31v100q124 0 182 79q-55 61 -105 161l70 69l71 -108q58 -87 105 -101v-100z" />
    <glyph glyph-name="l" unicode="l" horiz-adv-x="395" 
d="M302 460q0 -22 -17.5 -41t-42.5 -19t-42.5 17t-17.5 43q0 25 17.5 42.5t42.5 17.5q24 0 42 -18t18 -42zM375 36q-94 -136 -274 -136v100q124 0 182 79q-55 61 -105 161l70 69l53 -80q42 -65 74 -98q9 -9 15 -21q3 -7 5 -22q0 -23 -20 -52z" />
    <glyph glyph-name="m" unicode="m" horiz-adv-x="424" 
d="M424 0q-27 0 -63 18q-38 -56 -104 -87t-156 -31v100q124 0 182 79q-55 61 -105 161l70 69l71 -108q58 -87 105 -101v-100zM302 460q0 -22 -17.5 -41t-42.5 -19t-42.5 17t-17.5 43q0 25 17.5 42.5t42.5 17.5q24 0 42 -18t18 -42z" />
    <glyph glyph-name="n" unicode="n" horiz-adv-x="294" 
d="M294 8q0 -54 -30 -95q-49 -60 -214 -134v101q144 72 144 120q0 18 -16 66l-22 65l79 79q59 -172 59 -202z" />
    <glyph glyph-name="o" unicode="o" horiz-adv-x="306" 
d="M306 0h-12q0 -75 -89 -140q-53 -37 -155 -81v101q144 72 144 121q0 16 -16 64l-22 66l79 79l27 -77q8 -33 44 -33v-100z" />
    <glyph glyph-name="p" unicode="p" horiz-adv-x="294" 
d="M210 360q0 -25 -17 -42.5t-43 -17.5q-25 0 -42.5 17t-17.5 43q0 24 18.5 41.5t41.5 17.5q25 0 42.5 -17t17.5 -42zM294 8q0 -54 -30 -95q-49 -60 -214 -134v101q144 72 144 120q0 18 -16 66l-22 65l79 79q59 -172 59 -202z" />
    <glyph glyph-name="q" unicode="q" horiz-adv-x="306" 
d="M210 360q0 -25 -17 -42.5t-43 -17.5q-25 0 -42.5 17t-17.5 43q0 24 18.5 41.5t41.5 17.5q25 0 42.5 -17t17.5 -42zM306 0h-12q0 -75 -89 -140q-53 -37 -155 -81v101q144 72 144 121q0 16 -16 64l-22 66l79 79l27 -77q8 -33 44 -33v-100z" />
    <glyph glyph-name="r" unicode="r" horiz-adv-x="313" 
d="M237 492q0 -22 -17.5 -41t-42.5 -19t-43 17q-17 19 -17 43q0 25 17.5 43t42.5 18q24 0 42 -18t18 -43zM307 360q0 -24 -17.5 -42t-42.5 -18t-43 17q-17 19 -17 43q0 26 17.5 43.5t42.5 17.5q24 0 42 -17.5t18 -43.5zM170 360q0 -24 -17.5 -42t-42.5 -18t-43 17
q-17 19 -17 43q0 26 17.5 43.5t42.5 17.5q24 0 42 -17.5t18 -43.5zM313 8q0 -54 -30 -95q-50 -62 -215 -134v101q145 73 145 120q0 8 -4 25.5t-13 40.5l-21 65l79 79q59 -172 59 -202z" />
    <glyph glyph-name="s" unicode="s" horiz-adv-x="325" 
d="M237 492q0 -22 -17.5 -41t-42.5 -19t-43 17q-17 19 -17 43q0 25 17.5 43t42.5 18q24 0 42 -18t18 -43zM307 360q0 -24 -17.5 -42t-42.5 -18t-43 17q-17 19 -17 43q0 26 17.5 43.5t42.5 17.5q24 0 42 -17.5t18 -43.5zM170 360q0 -24 -17.5 -42t-42.5 -18t-43 17
q-17 19 -17 43q0 26 17.5 43.5t42.5 17.5q24 0 42 -17.5t18 -43.5zM325 0h-12q0 -75 -89 -140q-51 -36 -156 -81v101q145 73 145 121q0 17 -17 64l-21 66l79 79l26 -77q8 -33 45 -33v-100z" />
    <glyph glyph-name="t" unicode="t" horiz-adv-x="677" 
d="M665 177q12 -27 12 -56q0 -49 -32 -85q-30 -36 -79 -36h-78q-73 0 -101 74q0 -26 -59 -53q-50 -21 -86 -21q0 -112 -55.5 -208.5t-164.5 -184.5q-116 -92 -264 -139.5t-326 -47.5q-135 0 -269 30q-158 35 -246 104v100q86 -63 247 -102q71 -16 136.5 -24t131.5 -8
q358 0 592 207q133 119 133 265q0 90 -57 135l68 69q23 -12 43.5 -41t23.5 -55q89 0 163 75q24 24 29 25q10 0 20 -25q11 -40 17 -49q15 -26 48 -26h24q41 0 41 22q0 18 -14 42l-44 86h114z" />
    <glyph glyph-name="u" unicode="u" horiz-adv-x="730" 
d="M429 200q12 0 30 -50t46 -50q59 0 122 75q19 22 27 25q21 0 24 -25l4 -49q9 -26 48 -26v-100q-81 0 -118 52q-43 -52 -104 -52q-50 0 -73 14t-44 55q-18 -27 -65.5 -48t-83.5 -21q0 -112 -55.5 -208.5t-164.5 -184.5q-116 -92 -264 -139.5t-326 -47.5q-135 0 -269 30
q-158 35 -246 104v100q86 -63 247 -102q71 -16 136.5 -24t131.5 -8q358 0 592 207q133 119 133 265q0 90 -57 135l68 69q23 -12 43.5 -41t23.5 -55q18 0 40 6t48 20.5t68 48.5q29 24 38 25z" />
    <glyph glyph-name="v" unicode="v" horiz-adv-x="677" 
d="M677 0q-80 0 -119 52q-43 -52 -104 -52q-84 0 -121 52q-47 -52 -100 -52q-89 0 -128 52q-46 -52 -87 -52h-18v100q60 0 120 75q19 22 27 25q21 0 25 -25l6 -49q9 -26 50 -26q38 0 73 26q13 10 47 49q19 22 27 25q21 0 24 -25l4 -49q9 -26 48 -26q60 0 123 75q21 24 26 25
q21 0 24 -25l4 -49q9 -26 49 -26v-100z" />
    <glyph glyph-name="w" unicode="w" horiz-adv-x="629" 
d="M617 177q12 -27 12 -56q0 -49 -32 -85t-80 -36h-67q-81 0 -117 52q-47 -52 -104 -52q-87 0 -124 52q-46 -52 -87 -52h-18v100q60 0 120 75q19 22 27 25q21 0 24 -25l4 -49q9 -26 48 -26q66 0 126 75q18 24 25 25q17 0 26 -28l4 -46q9 -26 45 -26h39q41 0 41 22
q0 18 -14 42l-44 86h113z" />
    <glyph glyph-name="x" unicode="x" horiz-adv-x="677" 
d="M665 177q12 -27 12 -56q0 -49 -32 -85q-30 -36 -79 -36h-78q-73 0 -101 74q0 -26 -59 -53q-50 -21 -86 -21q0 -112 -55.5 -208.5t-164.5 -184.5q-116 -92 -264 -139.5t-326 -47.5q-135 0 -269 30q-158 35 -246 104v100q86 -63 247 -102q71 -16 136.5 -24t131.5 -8
q358 0 592 207q133 119 133 265q0 90 -57 135l68 69q23 -12 43.5 -41t23.5 -55q89 0 163 75q24 24 29 25q10 0 20 -25q11 -40 17 -49q15 -26 48 -26h24q41 0 41 22q0 18 -14 42l-44 86h114zM478 492q0 -22 -17.5 -41t-42.5 -19t-43 17q-17 19 -17 43q0 25 17.5 43t42.5 18
q24 0 42 -18t18 -43zM548 360q0 -24 -17.5 -42t-42.5 -18t-43 17q-17 19 -17 43q0 26 17.5 43.5t42.5 17.5q24 0 42 -18t18 -43zM411 360q0 -24 -17.5 -42t-42.5 -18t-43 17q-17 19 -17 43q0 26 17.5 43.5t42.5 17.5q24 0 42 -17.5t18 -43.5z" />
    <glyph glyph-name="y" unicode="y" horiz-adv-x="730" 
d="M429 200q12 0 30 -50t46 -50q59 0 122 75q19 22 27 25q21 0 24 -25l4 -49q9 -26 48 -26v-100q-81 0 -118 52q-43 -52 -104 -52q-50 0 -73 14t-44 55q-18 -27 -65.5 -48t-83.5 -21q0 -112 -55.5 -208.5t-164.5 -184.5q-116 -92 -264 -139.5t-326 -47.5q-135 0 -269 30
q-158 35 -246 104v100q86 -63 247 -102q71 -16 136.5 -24t131.5 -8q358 0 592 207q133 119 133 265q0 90 -57 135l68 69q23 -12 43.5 -41t23.5 -55q18 0 40 6t48 20.5t68 48.5q29 24 38 25zM486 492q0 -22 -17.5 -41t-42.5 -19t-43 17q-17 19 -17 43q0 25 17.5 43t42.5 18
q24 0 42 -18t18 -43zM556 360q0 -24 -17.5 -42t-42.5 -18t-43 17q-17 19 -17 43q0 26 17.5 43.5t42.5 17.5q24 0 42 -17.5t18 -43.5zM419 360q0 -24 -17.5 -42t-42.5 -18q-24 0 -41.5 18.5t-17.5 41.5q0 26 17 43.5t42 17.5q24 0 42 -17.5t18 -43.5z" />
    <glyph glyph-name="z" unicode="z" horiz-adv-x="677" 
d="M417 492q0 -22 -17.5 -41t-42.5 -19t-43 17q-17 19 -17 43q0 25 17.5 43t42.5 18q24 0 42 -18t18 -43zM487 360q0 -24 -17.5 -42t-41.5 -18q-26 0 -44 17q-17 19 -17 43q0 26 17.5 43.5t43.5 17.5q21 0 40 -18t19 -43zM350 360q0 -24 -17.5 -42t-41.5 -18q-26 0 -44 17
q-17 19 -17 43q0 26 17.5 43.5t43.5 17.5q23 0 41 -17.5t18 -43.5zM677 0q-80 0 -119 52q-43 -52 -104 -52q-84 0 -121 52q-47 -52 -100 -52q-89 0 -128 52q-46 -52 -87 -52h-18v100q60 0 120 75q19 22 27 25q21 0 25 -25l6 -49q9 -26 50 -26q38 0 73 26q13 10 47 49
q19 22 27 25q21 0 24 -25l4 -49q9 -26 48 -26q60 0 123 75q21 24 26 25q21 0 24 -25l4 -49q9 -26 49 -26v-100z" />
    <glyph glyph-name="braceleft" unicode="{" horiz-adv-x="629" 
d="M434 492q0 -22 -17.5 -41t-42.5 -19t-43 17q-17 19 -17 43q0 25 17.5 43t42.5 18q24 0 42 -18t18 -43zM504 360q0 -24 -17.5 -42t-42.5 -18t-43 17q-17 19 -17 43q0 26 17.5 43.5t42.5 17.5q24 0 42 -18t18 -43zM367 360q0 -24 -17.5 -42t-42.5 -18t-43 17q-17 19 -17 43
q0 26 17.5 43.5t42.5 17.5q24 0 42 -17.5t18 -43.5zM617 177q12 -27 12 -56q0 -49 -32 -85t-80 -36h-67q-81 0 -117 52q-47 -52 -104 -52q-87 0 -124 52q-46 -52 -87 -52h-18v100q60 0 120 75q19 22 27 25q21 0 24 -25l4 -49q9 -26 48 -26q66 0 126 75q18 24 25 25
q17 0 26 -28l4 -46q9 -26 45 -26h39q41 0 41 22q0 18 -14 42l-44 86h113z" />
    <glyph glyph-name="bar" unicode="|" horiz-adv-x="743" 
d="M643 115q0 43 -74 43q-15 0 -30 -3.5t-40 -22.5q-34 -24 -56 -56q200 0 200 39zM328 80q15 44 68 97q81 81 181 81q66 0 114 -36q52 -40 52 -103q0 -144 -243 -144h-12h-11l-42 1h-28q-14 3 -20 4l-24 -63h-103l21 72q-22 3 -39 19q0 -115 -56 -214q-28 -50 -68 -95.5
t-96 -91.5q-235 -187 -590 -187q-135 0 -269 30q-158 35 -246 104v100q86 -63 247 -102q71 -16 136.5 -24t131.5 -8q358 0 592 207q133 119 133 265q0 90 -57 135l68 69q12 -7 70 -62q48 -45 90 -54z" />
    <glyph glyph-name="braceright" unicode="}" horiz-adv-x="714" 
d="M517 115q62 27 62 53q0 34 -84 34q-30 0 -44 -1.5t-46 -6.5q-52 -6 -52 -29q0 -20 70 -36l54 -11zM241 100q8 -22 89 -22q-87 41 -87 93q0 57 89 88l65 16q35 6 71 6q209 0 209 -104q0 -38 -26 -77h63v-100h-43q-66 0 -158 21q-85 -32 -179 -32q-63 0 -92 11
q0 -112 -55.5 -208.5t-164.5 -184.5q-116 -92 -264 -139.5t-326 -47.5q-135 0 -269 30q-158 35 -246 104v100q86 -63 247 -102q71 -16 136.5 -24t131.5 -8q358 0 592 207q133 119 133 265q0 90 -57 135l68 69q49 -35 73 -96z" />
    <glyph glyph-name="asciitilde" unicode="~" horiz-adv-x="718" 
d="M718 0h-42q-67 0 -157 21q-91 -32 -175 -32q-140 0 -190 72l-51 -36q-48 -25 -103 -25v100q70 0 156 73q24 21 36 21q6 0 14 -18q6 -31 8 -34q21 -54 121 -64q-87 41 -87 94q0 57 89 87l65 16q35 6 71 6q209 0 209 -104q0 -35 -27 -77h63v-100zM522 115q62 27 62 53
q0 34 -84 34q-48 0 -95 -9t-47 -28q0 -18 69 -36l54 -11z" />
    <glyph glyph-name="quotesinglbase" unicode="&#x201a;" horiz-adv-x="681" 
d="M681 120q0 -86 -83 -122q-57 -22 -159 -22l-59 2l-55 2l-24 -63h-103l25 83q-46 9 -70 60q-74 -60 -153 -60v100q64 0 163 80q23 18 34 18t17 -22l8 -34l7 -16q14 -26 47 -26q98 158 240 158q83 0 129 -50q36 -39 36 -88zM581 115q0 43 -74 43q-60 0 -127 -82
q201 0 201 39z" />
    <glyph glyph-name="florin" unicode="&#x192;" horiz-adv-x="743" 
d="M625 418q0 -22 -18 -43q-19 -17 -42 -17q-25 0 -43 17.5t-18 42.5t17.5 43t43.5 18q24 0 42 -18t18 -43zM643 115q0 43 -74 43q-15 0 -30 -3.5t-40 -22.5q-34 -24 -56 -56q200 0 200 39zM328 80q15 44 68 97q81 81 181 81q66 0 114 -36q52 -40 52 -103q0 -144 -243 -144
h-12h-11l-42 1h-28q-14 3 -20 4l-24 -63h-103l21 72q-22 3 -39 19q0 -115 -56 -214q-28 -50 -68 -95.5t-96 -91.5q-235 -187 -590 -187q-135 0 -269 30q-158 35 -246 104v100q86 -63 247 -102q71 -16 136.5 -24t131.5 -8q358 0 592 207q133 119 133 265q0 90 -57 135l68 69
q12 -7 70 -62q48 -45 90 -54z" />
    <glyph glyph-name="quotedblbase" unicode="&#x201e;" horiz-adv-x="714" 
d="M528 418q0 -22 -17.5 -41t-42.5 -19t-43 17q-17 19 -17 43q0 25 17.5 43t42.5 18q24 0 42 -18t18 -43zM517 115q62 27 62 53q0 34 -84 34q-30 0 -44 -1.5t-46 -6.5q-52 -6 -52 -29q0 -20 70 -36l54 -11zM241 100q8 -22 89 -22q-87 41 -87 93q0 57 89 88l65 16q35 6 71 6
q209 0 209 -104q0 -38 -26 -77h63v-100h-43q-66 0 -158 21q-85 -32 -179 -32q-63 0 -92 11q0 -112 -55.5 -208.5t-164.5 -184.5q-116 -92 -264 -139.5t-326 -47.5q-135 0 -269 30q-158 35 -246 104v100q86 -63 247 -102q71 -16 136.5 -24t131.5 -8q358 0 592 207
q133 119 133 265q0 90 -57 135l68 69q49 -35 73 -96z" />
    <glyph glyph-name="ellipsis" unicode="&#x2026;" horiz-adv-x="718" 
d="M531 442q0 -22 -17.5 -41t-42.5 -19t-43 17q-17 19 -17 43q0 25 17.5 42.5t42.5 17.5q24 0 42 -17.5t18 -42.5zM718 0h-42q-67 0 -157 21q-91 -32 -175 -32q-140 0 -190 72l-51 -36q-48 -25 -103 -25v100q70 0 156 73q24 21 36 21q6 0 14 -18q6 -31 8 -34q21 -54 121 -64
q-87 41 -87 94q0 57 89 87l65 16q35 6 71 6q209 0 209 -104q0 -35 -27 -77h63v-100zM522 115q62 27 62 53q0 34 -84 34q-48 0 -95 -9t-47 -28q0 -18 69 -36l54 -11z" />
    <glyph glyph-name="dagger" unicode="&#x2020;" horiz-adv-x="681" 
d="M566 360q0 -24 -18 -42t-43 -18q-24 0 -41.5 18.5t-17.5 41.5q0 26 17 43.5t42 17.5q23 0 42 -17.5t19 -43.5zM681 120q0 -86 -83 -122q-57 -22 -159 -22l-59 2l-55 2l-24 -63h-103l25 83q-46 9 -70 60q-74 -60 -153 -60v100q64 0 163 80q23 18 34 18t17 -22l8 -34l7 -16
q14 -26 47 -26q98 158 240 158q83 0 129 -50q36 -39 36 -88zM581 115q0 43 -74 43q-60 0 -127 -82q201 0 201 39z" />
    <glyph glyph-name="daggerdbl" unicode="&#x2021;" horiz-adv-x="539" 
d="M539 142q0 -142 -263 -142h-175v501h99v-288q86 71 168 71q70 0 120.5 -37t50.5 -105zM439 142q0 43 -74 43q-35 0 -87 -26.5t-79 -58.5q240 0 240 42z" />
    <glyph glyph-name="circumflex" unicode="&#x2c6;" horiz-adv-x="592" 
d="M592 0q-63 0 -107 43q-71 -43 -276 -43h-108v501h99v-288q86 71 168 71q84 0 133 -49q37 -40 37 -78q0 -22 17 -39.5t37 -17.5v-100zM439 142q0 43 -74 43q-35 0 -87 -26.5t-79 -58.5q240 0 240 42z" />
    <glyph glyph-name="perthousand" unicode="&#x2030;" horiz-adv-x="542" 
d="M542 0q-63 0 -107 43q-72 -43 -275 -43h-160v100h51v401h99v-288q85 71 169 71q83 0 132 -49q37 -40 37 -78q0 -22 17 -39.5t37 -17.5v-100zM389 142q0 43 -74 43q-35 0 -87 -26.5t-79 -58.5q240 0 240 42z" />
    <glyph glyph-name="Scaron" unicode="&#x160;" horiz-adv-x="488" 
d="M488 142q0 -142 -263 -142h-225v100h50v401h99v-288q86 71 169 71q65 0 117.5 -38.5t52.5 -103.5zM389 142q0 43 -74 43q-35 0 -87 -26.5t-79 -58.5q240 0 240 42z" />
    <glyph glyph-name="guilsinglleft" unicode="&#x2039;" horiz-adv-x="541" 
d="M411 442q0 -22 -18 -43q-19 -17 -43 -17t-41.5 18.5t-17.5 41.5q0 25 17 42.5t42 17.5q22 0 41.5 -17.5t19.5 -42.5zM539 142q0 -142 -263 -142h-175v501h99v-288q86 71 168 71q70 0 120.5 -37t50.5 -105zM439 142q0 43 -74 43q-35 0 -87 -26.5t-79 -58.5q240 0 240 42z
" />
    <glyph glyph-name="OE" unicode="&#x152;" horiz-adv-x="592" 
d="M411 442q0 -22 -18 -43q-19 -17 -43 -17t-41.5 18.5t-17.5 41.5q0 25 17 42.5t42 17.5q22 0 41.5 -17.5t19.5 -42.5zM592 0q-63 0 -107 43q-71 -43 -276 -43h-108v501h99v-288q86 71 168 71q84 0 133 -49q37 -40 37 -78q0 -22 17 -39.5t37 -17.5v-100zM439 142
q0 43 -74 43q-35 0 -87 -26.5t-79 -58.5q240 0 240 42z" />
    <glyph glyph-name="quoteleft" unicode="&#x2018;" horiz-adv-x="542" 
d="M542 0q-63 0 -107 43q-72 -43 -275 -43h-160v100h51v401h99v-288q85 71 169 71q83 0 132 -49q37 -40 37 -78q0 -22 17 -39.5t37 -17.5v-100zM389 142q0 43 -74 43q-35 0 -87 -26.5t-79 -58.5q240 0 240 42zM366 442q0 -22 -18 -43q-19 -17 -42 -17q-26 0 -44 17
q-17 19 -17 43q0 25 17.5 42.5t43.5 17.5q24 0 42 -17.5t18 -42.5z" />
    <glyph glyph-name="quoteright" unicode="&#x2019;" horiz-adv-x="487" 
d="M488 142q0 -142 -263 -142h-225v100h50v401h99v-288q86 71 169 71q65 0 117.5 -38.5t52.5 -103.5zM389 142q0 43 -74 43q-35 0 -87 -26.5t-79 -58.5q240 0 240 42zM366 442q0 -22 -18 -43q-19 -17 -42 -17q-26 0 -44 17q-17 19 -17 43q0 25 17.5 42.5t43.5 17.5
q24 0 42 -17.5t18 -42.5z" />
    <glyph glyph-name="quotedblleft" unicode="&#x201c;" horiz-adv-x="469" 
d="M192 54q-49 6 -83 43q-31 37 -31 88q0 71 58 119q52 41 128 41h48v-99h-34q-105 0 -105 -46q0 -22 27 -40q23 -14 49 -14q20 0 43 12l102 86l75 -66q-39 -31 -77 -65.5t-79 -76.5q-113 -116 -113 -165q0 -75 88 -109q28 -9 68 -15q27 -3 41 -4t44 -1v-102q-188 0 -278 83
q-62 57 -62 131q0 87 91 200z" />
    <glyph glyph-name="quotedblright" unicode="&#x201d;" horiz-adv-x="468" 
d="M217 97q0 56 -80 56v100h281v-101h-80l33 -31q23 -21 45 -21h52v-100h-68q-39 0 -95 42q-27 -27 -63 -75q-42 -57 -42 -81q0 -74 89 -110q28 -9 68 -15q27 -3 41 -4t43 -1v-101q-186 0 -278 82q-61 58 -61 131q0 105 115 229z" />
    <glyph glyph-name="bullet" unicode="&#x2022;" horiz-adv-x="350" 
d="M350 0h-57q-39 0 -92 41q-27 -41 -124 -41h-77v100h129q3 23 -31 41q-27 12 -55 12v100h282v-101h-82q58 -52 80 -52h27v-100z" />
    <glyph glyph-name="endash" unicode="&#x2013;" horiz-adv-x="363" 
d="M260 299h48v-99h-34q-105 0 -105 -47q0 -24 29 -40l19 -8q10 -3 31 -5h115v-100h-362l-1 100h80q-6 18 -6 39q0 72 58 118q53 42 128 42z" />
    <glyph glyph-name="emdash" unicode="&#x2014;" horiz-adv-x="469" 
d="M312 466q0 -22 -17.5 -41t-42.5 -19t-43 17q-17 19 -17 43q0 25 17.5 42.5t42.5 17.5q24 0 42 -17.5t18 -42.5zM192 54q-49 6 -83 43q-31 37 -31 88q0 71 58 119q52 41 128 41h48v-99h-34q-105 0 -105 -46q0 -22 27 -40q23 -14 49 -14q20 0 43 12l102 86l75 -66
q-39 -31 -77 -65.5t-79 -76.5q-113 -116 -113 -165q0 -75 88 -109q28 -9 68 -15q27 -3 41 -4t44 -1v-102q-188 0 -278 83q-62 57 -62 131q0 87 91 200z" />
    <glyph glyph-name="tilde" unicode="&#x2dc;" horiz-adv-x="468" 
d="M340 360q0 -24 -17.5 -42t-42.5 -18t-43 17q-17 19 -17 43q0 26 17 43.5t43 17.5q24 0 42 -17.5t18 -43.5zM217 97q0 56 -80 56v100h281v-101h-80l33 -31q23 -21 45 -21h52v-100h-68q-39 0 -95 42q-27 -27 -63 -75q-42 -57 -42 -81q0 -74 89 -110q28 -9 68 -15
q27 -3 41 -4t43 -1v-101q-186 0 -278 82q-61 58 -61 131q0 105 115 229z" />
    <glyph glyph-name="trademark" unicode="&#x2122;" horiz-adv-x="350" 
d="M240 360q0 -24 -17.5 -42t-42.5 -18t-43 17.5t-18 42.5q0 23 18 42t43 19q24 0 42 -18t18 -43zM350 0h-57q-39 0 -92 41q-27 -41 -124 -41h-77v100h129q3 23 -31 41q-27 12 -55 12v100h282v-101h-82q58 -52 80 -52h27v-100z" />
    <glyph glyph-name="scaron" unicode="&#x161;" horiz-adv-x="363" 
d="M260 299h48v-99h-34q-105 0 -105 -47q0 -24 29 -40l19 -8q10 -3 31 -5h115v-100h-362l-1 100h80q-6 18 -6 39q0 72 58 118q53 42 128 42zM308 466q0 -22 -17.5 -41t-42.5 -19t-43 17q-17 19 -17 43q0 25 17.5 42.5t42.5 17.5q24 0 42 -17.5t18 -42.5z" />
    <glyph glyph-name="guilsinglright" unicode="&#x203a;" horiz-adv-x="1089" 
d="M977 561q0 -22 -17.5 -41t-42.5 -19t-43 17q-17 19 -17 43q0 25 17.5 42.5t42.5 17.5q24 0 42 -17.5t18 -42.5zM616 -50q-75 0 -135.5 7.5t-133 26.5t-134.5 46q-30 13 -57.5 28t-54.5 34v122q87 -78 242 -124q143 -40 270 -40q333 0 378 123q9 24 9 46q0 28 -18 51.5
t-46 23.5q-16 0 -40 -15l-16 -15q-6 -8 -6 -17q0 -47 75 -47q9 -9 10 -20q0 -23 -48 -59q-53 0 -89 30q-33 30 -33 87q0 65 45.5 108.5t109.5 43.5q66 0 108 -48q38 -44 38 -113q0 -11 -0.5 -24t-7.5 -32q-42 -135 -190 -187q-102 -36 -276 -36z" />
    <glyph glyph-name="oe" unicode="&#x153;" horiz-adv-x="1276" 
d="M1141 509q0 -22 -17.5 -41t-42.5 -19q-24 0 -41.5 18.5t-17.5 41.5q0 25 17 42.5t42 17.5q24 0 42 -17.5t18 -42.5zM1277 0h-80q-59 0 -112 28q-156 -78 -469 -78q-75 0 -135.5 7.5t-133 26.5t-134.5 46q-30 13 -57.5 28t-54.5 34v122q87 -78 242 -124q143 -40 270 -40
q299 0 381 50q-50 48 -50 112q0 60 41 98.5t101 38.5t101 -39.5t41 -99.5t-51 -110h100v-100zM1083 259q-21 0 -39 -15t-18 -36q0 -34 59 -72q57 26 57 64q0 25 -17 42t-42 17z" />
    <glyph glyph-name="Ydieresis" unicode="&#x178;" horiz-adv-x="384" 
d="M257 509q0 -22 -18 -43q-19 -17 -42 -17q-25 0 -43 17q-17 19 -17 43q0 25 17 42.5t43 17.5q24 0 42 -17.5t18 -42.5zM100 0h-100v100h100q-49 49 -49 112q0 58 40.5 97.5t101.5 39.5q60 0 101 -39.5t41 -99.5t-51 -110h100v-100h-80q-60 0 -112 28q-59 -28 -92 -28z
M190 259q-38 0 -56 -41l-2 -10q0 -33 60 -72q57 26 57 64q0 23 -17.5 41t-41.5 18z" />
    <glyph glyph-name="nonbreakingspace" unicode="&#xa0;" horiz-adv-x="355" 
d="M260 519q0 -25 -17 -42.5t-42 -17.5q-26 0 -43 17t-17 43q0 25 17.5 42.5t42.5 17.5q23 0 41 -17.5t18 -42.5zM256 198l6 23l2 23q0 27 -18 51t-46 24q-17 0 -38.5 -15.5t-22.5 -31.5q0 -48 75 -48q9 -6 10 -19q0 -23 -48 -59q-53 0 -87.5 30.5t-34.5 86.5
q0 66 44.5 108.5t109.5 42.5t106 -46t41 -114q0 -26 -9 -56q-35 -116 -134 -162q-75 -36 -212 -36v100q219 0 256 98z" />
    <glyph glyph-name="exclamdown" unicode="&#xa1;" horiz-adv-x="475" 
d="M421 455q0 -22 -18 -43q-19 -17 -43 -17q-25 0 -43 17q-17 19 -17 43q0 25 17.5 43t42.5 18q22 0 41.5 -18.5t19.5 -42.5zM284 455q0 -22 -18 -43q-19 -17 -43 -17q-25 0 -43 17q-17 19 -17 43q0 25 17.5 43t42.5 18q23 0 42 -18t19 -43zM475 12q0 -175 -127 -315
q-108 -120 -288 -192q-106 -41 -232 -63t-264 -22q-135 0 -269 30q-158 35 -246 104v100q86 -63 247 -102q71 -16 136.5 -24t131.5 -8q217 0 397 51q220 63 340 201q89 106 89 220q0 102 -40 175q-33 62 -69 62q-18 0 -35 -14.5t-17 -35.5q0 -35 42 -35h50q13 0 24.5 -35
t11.5 -51l-1 -7l-19 -7q-18 -5 -46 -5q-54 0 -102 32t-48 85q0 63 40.5 118t103.5 55q99 0 150 -116q40 -91 40 -201z" />
    <glyph glyph-name="cent" unicode="&#xa2;" horiz-adv-x="494" 
d="M380 429q0 -22 -17.5 -41t-42.5 -19t-43 17q-17 19 -17 43q0 25 17.5 42.5t42.5 17.5q24 0 42 -17.5t18 -42.5zM244 429q0 -22 -17.5 -41t-42.5 -19t-42.5 18.5t-17.5 41.5q0 25 17.5 42.5t42.5 17.5q24 0 42 -17.5t18 -42.5zM330 100q-5 31 -29 57q-23 28 -51 28
q-22 0 -39 -17q-18 -15 -18 -37q0 -31 47 -31h90zM428 0q0 -236 -245 -403q-255 -177 -670 -177q-135 0 -269 30q-158 35 -246 104v100q86 -63 247 -102q71 -16 136.5 -24t131.5 -8q220 0 398 52q223 66 339 203q89 106 89 225h-101q-54 0 -93 24q-45 27 -45 80q0 71 38 121
q43 55 111 55q70 0 122 -55q42 -47 60 -125h63v-100h-66z" />
    <glyph glyph-name="sterling" unicode="&#xa3;" horiz-adv-x="384" 
d="M329 510q0 -24 -19 -41.5t-41 -17.5q-25 0 -43 17t-18 42t17.5 43t43.5 18q24 0 42 -18t18 -43zM192 510q0 -24 -17.5 -41.5t-42.5 -17.5t-43 17t-18 42q0 23 18 42t43 19q24 0 42 -18t18 -43zM100 0h-100v100h100q-49 49 -49 112q0 58 40.5 97.5t101.5 39.5
q60 0 101 -39.5t41 -99.5t-51 -110h100v-100h-80q-60 0 -112 28q-59 -28 -92 -28zM190 259q-38 0 -56 -41l-2 -10q0 -33 60 -72q57 26 57 64q0 23 -17.5 41t-41.5 18z" />
    <glyph glyph-name="currency" unicode="&#xa4;" horiz-adv-x="355" 
d="M334 520q0 -22 -18 -43q-19 -17 -43 -17q-25 0 -43 17q-17 19 -17 43q0 25 17.5 42.5t42.5 17.5q22 0 41.5 -17.5t19.5 -42.5zM197 520q0 -22 -17.5 -41t-42.5 -19t-43 17q-17 19 -17 43q0 25 17.5 42.5t42.5 17.5q24 0 42 -17.5t18 -42.5zM256 198l6 23l2 23
q0 27 -18 51t-46 24q-17 0 -38.5 -15.5t-22.5 -31.5q0 -27 28 -39l19 -5l32 -6q9 -6 10 -19q0 -23 -48 -59q-55 0 -90.5 32t-35.5 87q0 66 44.5 108.5t109.5 42.5t106 -46t41 -114q0 -26 -9 -56q-35 -116 -134 -162q-75 -36 -212 -36v100q219 0 256 98z" />
    <glyph glyph-name="yen" unicode="&#xa5;" horiz-adv-x="1060" 
d="M1060 366q-123 0 -252 -40q-66 -20 -134 -50t-146 -74v100q75 69 252 120q158 45 280 45v-101zM1060 134q0 -93 -160 -144q-64 -20 -135 -30q-30 -4 -71.5 -7t-79.5 -3q-296 0 -513 140v123q97 -79 243 -124q131 -39 270 -39q128 0 245 33q98 29 98 51q0 18 -35 37
q-27 14 -58.5 19.5t-53 7.5t-52.5 2v100q161 0 244 -63q58 -47 58 -103z" />
    <glyph glyph-name="brokenbar" unicode="&#xa6;" horiz-adv-x="1139" 
d="M1046 366q-123 0 -252 -40q-66 -20 -134 -50t-146 -74v100q75 71 252 120q156 45 280 45v-101zM1139 0q-48 0 -81 21l-16 14l-26 26q-47 -53 -178 -86q-113 -25 -224 -25q-296 0 -513 140v123q97 -79 243 -124q131 -39 270 -39q75 0 128 7.5t114 27.5q95 30 95 54l-21 18
q-58 43 -187 43v100l64 -1q29 0 46 -4q123 -21 199 -136q39 -59 87 -59v-100z" />
    <glyph glyph-name="section" unicode="&#xa7;" horiz-adv-x="538" 
d="M538 0q-48 0 -83 23l-17 14l-25 27q-57 -44 -175 -57l-92 -5l-146 -2v100q342 0 342 33q0 19 -37 40q-54 27 -163 27v100q71 0 112 -6q48 -9 104 -38q42 -21 93 -96q39 -60 87 -60v-100zM446 370l-47 1q-195 0 -374 -109v100q30 45 172 81q25 6 50.5 11.5t54 10.5t49.5 7
t43 2h33l19 -4v-100z" />
    <glyph glyph-name="dieresis" unicode="&#xa8;" horiz-adv-x="446" 
d="M446 370l-47 1q-195 0 -374 -109v100q30 45 172 81q25 6 50.5 11.5t54 10.5t49.5 7t43 2h33l19 -4v-100zM446 134q0 -88 -160 -119q-84 -15 -286 -15v100q343 0 343 34q0 18 -35 37q-27 14 -59.5 19.5t-54 7.5t-51.5 2v100q162 0 245 -63q58 -47 58 -103z" />
    <glyph glyph-name="copyright" unicode="&#xa9;" horiz-adv-x="1060" 
d="M1060 134q0 -93 -160 -144q-64 -20 -135 -30q-30 -4 -71.5 -7t-79.5 -3q-296 0 -513 140v123q97 -79 243 -124q131 -39 270 -39q128 0 245 33q98 29 98 51q0 18 -35 37q-27 14 -58.5 19.5t-53 7.5t-52.5 2v100q161 0 244 -63q58 -47 58 -103zM1030 527q-33 0 -78 -7
q-49 -6 -109 -22q-148 -33 -222 -76v50q33 30 186 67.5t223 37.5v-50zM1060 366q-240 0 -531 -164v100q74 71 251 120q158 45 280 45v-101z" />
    <glyph glyph-name="ordfeminine" unicode="&#xaa;" horiz-adv-x="1139" 
d="M1139 0q-48 0 -81 21l-16 14l-26 26q-47 -53 -178 -86q-113 -25 -224 -25q-296 0 -513 140v123q97 -79 243 -124q131 -39 270 -39q75 0 128 7.5t114 27.5q95 30 95 54l-21 18q-58 43 -187 43v100l64 -1q29 0 46 -4q123 -21 199 -136q39 -59 87 -59v-100zM1015 527
q-31 0 -78.5 -6.5t-107.5 -22.5q-146 -33 -223 -76v50q33 30 186.5 67.5t222.5 37.5v-50zM1046 366q-123 0 -252 -40q-66 -20 -134 -50t-146 -74v100q75 71 252 120q156 45 280 45v-101z" />
    <glyph glyph-name="guillemotleft" unicode="&#xab;" horiz-adv-x="538" 
d="M414 527q-183 0 -311 -73v38q34 31 148 61q96 24 163 24v-50zM538 0q-48 0 -83 23l-17 14l-25 27q-57 -44 -175 -57l-92 -5l-146 -2v100q342 0 342 33q0 19 -37 40q-54 27 -163 27v100q71 0 112 -6q48 -9 104 -38q42 -21 93 -96q39 -60 87 -60v-100zM446 370l-47 1
q-195 0 -374 -109v100q30 45 172 81q25 6 50.5 11.5t54 10.5t49.5 7t43 2h33l19 -4v-100z" />
    <glyph glyph-name="logicalnot" unicode="&#xac;" horiz-adv-x="446" 
d="M446 134q0 -88 -160 -119q-84 -15 -286 -15v100q343 0 343 34q0 18 -35 37q-27 14 -59.5 19.5t-54 7.5t-51.5 2v100q162 0 245 -63q58 -47 58 -103zM414 527q-183 0 -311 -73v38q34 31 148 61q96 24 163 24v-50zM446 370l-47 1q-195 0 -374 -109v100q30 45 172 81
q25 6 50.5 11.5t54 10.5t49.5 7t43 2h33l19 -4v-100z" />
    <glyph glyph-name="minus" unicode="&#xad;" horiz-adv-x="200" 
d="M-710 -580q-137 0 -269 30q-157 35 -247 104v100q86 -63 248 -102q142 -32 268 -32q276 0 506 90q304 122 304 363v495h100v-456q0 -247 -227 -411q-253 -181 -683 -181z" />
    <glyph glyph-name="registered" unicode="&#xae;" horiz-adv-x="278" 
d="M200 200q0 -100 78 -100v-100q-45 0 -78 15q0 -246 -227 -412q-251 -183 -683 -183q-137 0 -269 30q-157 35 -247 104v100q86 -63 248 -102q142 -32 268 -32q276 0 506 90q304 122 304 363v495h100v-268z" />
    <glyph glyph-name="macron" unicode="&#xaf;" horiz-adv-x="364" 
d="M364 99q0 -41 -29 -70t-70 -29h-165v100h113q51 0 51 53v315h100v-369zM240 150l-99 -17l-55 313l99 18z" />
    <glyph glyph-name="degree" unicode="&#xb0;" horiz-adv-x="415" 
d="M415 0h-53q-26 0 -48 13q-4 -2 -19.5 -7.5t-30.5 -5.5h-164v100h112q19 0 35.5 15.5t16.5 37.5v315h99v-315q0 -19 15 -37q16 -16 37 -16v-100zM240 150l-99 -17l-55 313l99 18z" />
    <glyph glyph-name="plusminus" unicode="&#xb1;" horiz-adv-x="203" 
d="M203 0h-53q-26 0 -48 13q-26 -13 -49 -13h-53v100q19 0 35.5 15.5t16.5 37.5v315h99v-315q0 -19 15 -37q16 -16 37 -16v-100z" />
    <glyph glyph-name="twosuperior" unicode="&#xb2;" horiz-adv-x="151" 
d="M151 99q0 -41 -29 -70t-69 -29h-53v100q19 0 35.5 15.5t16.5 37.5v315h99v-369z" />
    <glyph glyph-name="threesuperior" unicode="&#xb3;" horiz-adv-x="537" 
d="M537 77q0 -69 -39.5 -110t-110.5 -41q-29 0 -68 21q-36 21 -48 52h-36q-27 0 -33 -19l-2 -47v-233h-100v325q0 75 75 75h123q27 0 48 -36.5t49 -36.5q44 0 44 46q0 23 -11 42l-10 22l-118 -36l-36 89l128 45l35 7q53 0 84 -62q26 -49 26 -103z" />
    <glyph glyph-name="acute" unicode="&#xb4;" horiz-adv-x="576" 
d="M576 0q-27 0 -53 6q-36 -80 -136 -80q-29 0 -68 21q-36 21 -48 52h-36q-27 0 -33 -19l-2 -47v-233h-100v325q0 75 75 75h123q27 0 48 -36.5t49 -36.5q44 0 44 46q0 23 -11 42l-10 22l-118 -36l-36 89l128 45l34 7q65 0 101 -102q14 -40 49 -40v-100z" />
    <glyph glyph-name="mu" unicode="&#xb5;" horiz-adv-x="434" 
d="M434 0q-27 0 -54 6q-35 -80 -135 -80q-30 0 -69.5 24.5t-54.5 54.5l86 57q15 -35 46 -35q43 0 43 45q0 20 -10 43l-10 22l-202 -137h-74v100h23q27 0 63 24l157 105q22 14 44 14q33 0 64 -34q22 -26 33.5 -67.5t49.5 -41.5v-100z" />
    <glyph glyph-name="paragraph" unicode="&#xb6;" horiz-adv-x="409" 
d="M409 77q0 -62 -42 -107t-105 -45q-45 0 -82 25.5t-54 70.5q-24 -21 -59 -21h-67v100h75q23 0 70 43l74 70l46 -87q-53 0 -53 -52q0 -49 50 -49q48 0 48 49q0 19 -10 36l-65 112l95 52q39 -63 59 -112t20 -85z" />
    <glyph glyph-name="periodcentered" unicode="&#xb7;" horiz-adv-x="591" 
d="M591 267q-165 -109 -289 -243q-102 -111 -102 -153q0 -75 88 -109q28 -9 68 -15q27 -3 41 -4t44 -1v-102q-188 0 -278 83q-62 57 -62 131q0 187 417 481zM260 360q0 -24 -17.5 -42t-42.5 -18q-22 0 -43 18q-17 19 -17 42q0 26 17.5 43.5t42.5 17.5q24 0 42 -17.5
t18 -43.5z" />
    <glyph glyph-name="periodcentered" unicode="&#x2219;" horiz-adv-x="591" 
d="M591 267q-165 -109 -289 -243q-102 -111 -102 -153q0 -75 88 -109q28 -9 68 -15q27 -3 41 -4t44 -1v-102q-188 0 -278 83q-62 57 -62 131q0 187 417 481zM260 360q0 -24 -17.5 -42t-42.5 -18q-22 0 -43 18q-17 19 -17 42q0 26 17.5 43.5t42.5 17.5q24 0 42 -17.5
t18 -43.5z" />
    <glyph glyph-name="cedilla" unicode="&#xb8;" horiz-adv-x="617" 
d="M617 0q-60 0 -107 27q-53 32 -53 91q0 27 12 60q-119 -94 -199 -191q-70 -85 -70 -116q0 -75 89 -109q28 -9 68 -15q27 -3 41 -4t43 -1v-102q-188 0 -278 83q-62 57 -62 131q0 185 417 481l73 -68l-45 -32q-17 -34 -17 -62q0 -73 88 -73v-100zM260 360q0 -24 -17.5 -42
t-42.5 -18q-22 0 -43 18q-17 19 -17 42q0 26 17.5 43.5t42.5 17.5q24 0 42 -17.5t18 -43.5z" />
    <glyph glyph-name="onesuperior" unicode="&#xb9;" horiz-adv-x="276" 
d="M235 360q0 -24 -17.5 -42t-42.5 -18q-22 0 -43 18q-17 19 -17 42q0 26 17.5 43.5t42.5 17.5q24 0 42 -17.5t18 -43.5zM276 0q-84 0 -120 52q-14 -17 -73 -34.5t-83 -17.5v100q63 0 159 75q30 21 39 25q21 0 24 -25l1 -30q0 -14 4 -19q9 -26 49 -26v-100z" />
    <glyph glyph-name="ordmasculine" unicode="&#xba;" horiz-adv-x="256" 
d="M188 360q0 -22 -18 -43q-19 -17 -43 -17t-41.5 18.5t-17.5 41.5q0 25 17 42t42 17t43 -17t18 -42zM244 177q12 -27 12 -56q0 -49 -32 -85t-81 -36h-143v100h114q41 0 41 22q0 18 -14 42l-44 86h114z" />
    <glyph glyph-name="guillemotright" unicode="&#xbb;" horiz-adv-x="455" 
d="M451 33l5 -36q0 -109 -248 -218v101q144 72 144 120h-102q-51 0 -97 25q-53 30 -53 79q0 71 38 121q43 55 111 55q150 0 202 -247zM330 100q-43 85 -81 85q-10 0 -28 -12q-11 -11 -16 -25l-3 -26q0 -22 38 -22h90z" />
    <glyph glyph-name="onequarter" unicode="&#xbc;" horiz-adv-x="494" 
d="M494 0h-42q0 -51 -31 -88q-52 -61 -213 -133v101q144 72 144 120h-102q-51 0 -97 25q-53 30 -53 79q0 71 38 121q43 55 111 55q70 0 122 -55q42 -47 60 -125h63v-100zM330 100q-43 85 -81 85q-10 0 -28 -12q-11 -11 -16 -25l-3 -26q0 -22 38 -22h90z" />
    <glyph glyph-name="onehalf" unicode="&#xbd;" horiz-adv-x="404" 
d="M404 100q0 -62 -57 -88q-32 -12 -99 -12q-63 0 -95 12q-53 21 -53 88q0 52 7 80h103q-10 -18 -10 -46q0 -34 49 -34q51 0 51 34q0 66 -50 66h-138l16 100h122q78 0 120 -63q34 -56 34 -137z" />
    <glyph glyph-name="threequarters" unicode="&#xbe;" horiz-adv-x="409" 
d="M409 0h-38q-40 0 -82 72q-34 63 -34 111q-53 -18 -53 -56q0 -21 25 -46l-58 -82q-70 61 -70 128q0 66 77 125q62 48 88 48q46 0 71 -52l24 -87q21 -61 50 -61v-100z" />
    <glyph glyph-name="questiondown" unicode="&#xbf;" horiz-adv-x="452" 
d="M452 0q-18 0 -38 -13q-99 -63 -209 -81q-42 -6 -167 -6v100h-38v100h38q0 48 60 119q72 81 169 81q42 0 79.5 -33.5t37.5 -76.5q0 -76 -89 -129q-70 -40 -157 -52q-9 0 -10 -5q0 -9 22 -12q63 0 112.5 16.5t99.5 57.5q43 34 76 34h14v-100zM281 187q0 13 -30 13
q-29 0 -67 -37q-28 -25 -47 -63l67 28q77 30 77 59z" />
    <glyph glyph-name="Agrave" unicode="&#xc0;" horiz-adv-x="359" 
d="M359 200h-54q51 -59 51 -124q0 -58 -38.5 -94t-95.5 -36q-26 0 -69 27t-58 27h-95v100h60q-53 58 -53 125q0 57 39 94t103 37q29 0 66.5 -30.5t53.5 -31.5l90 1v-95zM187 218q-30 39 -60 39q-28 0 -28 -30q0 -32 28 -59zM271 75q0 28 -34 59l-59 -50q30 -39 62 -39
q31 0 31 30z" />
    <glyph glyph-name="Aacute" unicode="&#xc1;" horiz-adv-x="461" 
d="M426 234q-32 33 -78 33q-69 0 -143 -90q-25 -31 -25 -51q0 -26 42 -26h28q106 0 106 -104q0 -66 -42 -144q-114 -214 -333 -328q-202 -104 -461 -104q-135 0 -269 30q-158 35 -246 104v100q86 -63 247 -102q71 -16 136.5 -24t131.5 -8q328 0 547 167q153 117 202 259
l4 25q0 29 -38 29h-5q-130 0 -130 84q0 51 34 113q29 53 71 94q85 82 169 82q68 0 87 -44z" />
    <glyph glyph-name="Acircumflex" unicode="&#xc2;" horiz-adv-x="404" 
d="M404 0h-63q29 -12 47 -50q16 -40 16 -76q0 -78 -48 -152q-34 -51 -114 -115q-235 -187 -589 -187q-137 0 -269 30q-157 35 -247 104v100q86 -63 248 -102q71 -16 136.5 -24t131.5 -8q360 0 591 207q69 62 69 125q0 69 -74 113q-62 35 -139 35l46 100h258v-100z" />
    <glyph glyph-name="Atilde" unicode="&#xc3;" horiz-adv-x="276" 
d="M276 0q-84 0 -120 52q-14 -17 -73 -34.5t-83 -17.5v100q63 0 159 75q30 21 39 25q21 0 24 -25l1 -30q0 -14 4 -19q9 -26 49 -26v-100zM264 -160q0 -24 -17.5 -42t-42.5 -18q-23 0 -42 17.5t-19 42.5q0 22 18 43q19 17 43 17q25 0 42.5 -17.5t17.5 -42.5zM127 -160
q0 -24 -17.5 -42t-42.5 -18q-23 0 -42 17.5t-19 42.5q0 22 18 43q19 17 43 17q25 0 42.5 -17.5t17.5 -42.5z" />
    <glyph glyph-name="Adieresis" unicode="&#xc4;" horiz-adv-x="264" 
d="M244 177q12 -27 12 -56q0 -49 -32 -85t-81 -36h-143v100h114q41 0 41 22q0 18 -14 42l-44 86h114zM264 -160q0 -24 -17.5 -42t-42.5 -18q-22 0 -41 17.5t-19 42.5t17 43q19 17 43 17q25 0 42.5 -17.5t17.5 -42.5zM127 -160q0 -24 -17.5 -42t-42.5 -18q-24 0 -41.5 17.5
t-17.5 42.5t17 42.5t42 17.5t42.5 -17.5t17.5 -42.5z" />
    <glyph glyph-name="Aring" unicode="&#xc5;" horiz-adv-x="681" 
d="M681 120q0 -86 -83 -122q-57 -22 -159 -22l-59 2l-55 2l-24 -63h-103l25 83q-46 9 -70 60q-74 -60 -153 -60v100q64 0 163 80q23 18 34 18t17 -22l8 -34l7 -16q14 -26 47 -26q98 158 240 158q83 0 129 -50q36 -39 36 -88zM581 115q0 43 -74 43q-60 0 -127 -82
q201 0 201 39z" />
    <glyph glyph-name="AE" unicode="&#xc6;" horiz-adv-x="743" 
d="M625 418q0 -22 -18 -43q-19 -17 -42 -17q-25 0 -43 17.5t-18 42.5t17.5 43t43.5 18q24 0 42 -18t18 -43zM643 115q0 43 -74 43q-15 0 -30 -3.5t-40 -22.5q-34 -24 -56 -56q200 0 200 39zM328 80q15 44 68 97q81 81 181 81q66 0 114 -36q52 -40 52 -103q0 -144 -243 -144
h-12h-11l-42 1h-28q-14 3 -20 4l-24 -63h-103l21 72q-22 3 -39 19q0 -115 -56 -214q-28 -50 -68 -95.5t-96 -91.5q-235 -187 -590 -187q-135 0 -269 30q-158 35 -246 104v100q86 -63 247 -102q71 -16 136.5 -24t131.5 -8q358 0 592 207q133 119 133 265q0 90 -57 135l68 69
q12 -7 70 -62q48 -45 90 -54z" />
    <glyph glyph-name="Ccedilla" unicode="&#xc7;" horiz-adv-x="714" 
d="M528 418q0 -22 -17.5 -41t-42.5 -19t-43 17q-17 19 -17 43q0 25 17.5 43t42.5 18q24 0 42 -18t18 -43zM517 115q62 27 62 53q0 34 -84 34q-30 0 -44 -1.5t-46 -6.5q-52 -6 -52 -29q0 -20 70 -36l54 -11zM241 100q8 -22 89 -22q-87 41 -87 93q0 57 89 88l65 16q35 6 71 6
q209 0 209 -104q0 -38 -26 -77h63v-100h-43q-66 0 -158 21q-85 -32 -179 -32q-63 0 -92 11q0 -112 -55.5 -208.5t-164.5 -184.5q-116 -92 -264 -139.5t-326 -47.5q-135 0 -269 30q-158 35 -246 104v100q86 -63 247 -102q71 -16 136.5 -24t131.5 -8q358 0 592 207
q133 119 133 265q0 90 -57 135l68 69q49 -35 73 -96z" />
    <glyph glyph-name="Egrave" unicode="&#xc8;" horiz-adv-x="541" 
d="M411 442q0 -22 -18 -43q-19 -17 -43 -17t-41.5 18.5t-17.5 41.5q0 25 17 42.5t42 17.5q22 0 41.5 -17.5t19.5 -42.5zM539 142q0 -142 -263 -142h-175v501h99v-288q86 71 168 71q70 0 120.5 -37t50.5 -105zM439 142q0 43 -74 43q-35 0 -87 -26.5t-79 -58.5q240 0 240 42z
" />
    <glyph glyph-name="Eacute" unicode="&#xc9;" horiz-adv-x="592" 
d="M411 442q0 -22 -18 -43q-19 -17 -43 -17t-41.5 18.5t-17.5 41.5q0 25 17 42.5t42 17.5q22 0 41.5 -17.5t19.5 -42.5zM592 0q-63 0 -107 43q-71 -43 -276 -43h-108v501h99v-288q86 71 168 71q84 0 133 -49q37 -40 37 -78q0 -22 17 -39.5t37 -17.5v-100zM439 142
q0 43 -74 43q-35 0 -87 -26.5t-79 -58.5q240 0 240 42z" />
    <glyph glyph-name="Ecircumflex" unicode="&#xca;" horiz-adv-x="542" 
d="M542 0q-63 0 -107 43q-72 -43 -275 -43h-160v100h51v401h99v-288q85 71 169 71q83 0 132 -49q37 -40 37 -78q0 -22 17 -39.5t37 -17.5v-100zM389 142q0 43 -74 43q-35 0 -87 -26.5t-79 -58.5q240 0 240 42zM366 442q0 -22 -18 -43q-19 -17 -42 -17q-26 0 -44 17
q-17 19 -17 43q0 25 17.5 42.5t43.5 17.5q24 0 42 -17.5t18 -42.5z" />
    <glyph glyph-name="Edieresis" unicode="&#xcb;" horiz-adv-x="487" 
d="M488 142q0 -142 -263 -142h-225v100h50v401h99v-288q86 71 169 71q65 0 117.5 -38.5t52.5 -103.5zM389 142q0 43 -74 43q-35 0 -87 -26.5t-79 -58.5q240 0 240 42zM366 442q0 -22 -18 -43q-19 -17 -42 -17q-26 0 -44 17q-17 19 -17 43q0 25 17.5 42.5t43.5 17.5
q24 0 42 -17.5t18 -42.5z" />
    <glyph glyph-name="Igrave" unicode="&#xcc;" horiz-adv-x="469" 
d="M192 54q-49 6 -83 43q-31 37 -31 88q0 71 58 119q52 41 128 41h48v-99h-34q-105 0 -105 -46q0 -22 27 -40q23 -14 49 -14q20 0 43 12l102 86l75 -66q-39 -31 -77 -65.5t-79 -76.5q-113 -116 -113 -165q0 -75 88 -109q28 -9 68 -15q27 -3 41 -4t44 -1v-102q-188 0 -278 83
q-62 57 -62 131q0 87 91 200z" />
    <glyph glyph-name="Iacute" unicode="&#xcd;" horiz-adv-x="468" 
d="M217 97q0 56 -80 56v100h281v-101h-80l33 -31q23 -21 45 -21h52v-100h-68q-39 0 -95 42q-27 -27 -63 -75q-42 -57 -42 -81q0 -74 89 -110q28 -9 68 -15q27 -3 41 -4t43 -1v-101q-186 0 -278 82q-61 58 -61 131q0 105 115 229z" />
    <glyph glyph-name="Icircumflex" unicode="&#xce;" horiz-adv-x="355" 
d="M260 519q0 -25 -17 -42.5t-42 -17.5q-26 0 -43 17t-17 43q0 25 17.5 42.5t42.5 17.5q23 0 41 -17.5t18 -42.5zM256 198l6 23l2 23q0 27 -18 51t-46 24q-17 0 -38.5 -15.5t-22.5 -31.5q0 -48 75 -48q9 -6 10 -19q0 -23 -48 -59q-53 0 -87.5 30.5t-34.5 86.5
q0 66 44.5 108.5t109.5 42.5t106 -46t41 -114q0 -26 -9 -56q-35 -116 -134 -162q-75 -36 -212 -36v100q219 0 256 98z" />
    <glyph glyph-name="Idieresis" unicode="&#xcf;" horiz-adv-x="200" 
d="M-710 -580q-137 0 -269 30q-157 35 -247 104v100q86 -63 248 -102q142 -32 268 -32q276 0 506 90q304 122 304 363v495h100v-456q0 -247 -227 -411q-253 -181 -683 -181z" />
    <glyph glyph-name="Eth" unicode="&#xd0;" 
d="M332 691q-20 -10 -44.5 -16t-50.5 -6q-32 0 -71 15q-54 13 -70 13q-49 0 -94 -23v52q16 9 40.5 15.5t54.5 6.5q27 0 72 -15q48 -14 68 -14q41 0 95 24v-52z" />
    <glyph glyph-name="Ntilde" unicode="&#xd1;" 
d="M201 822l-18 -192h-32l-21 192h71z" />
    <glyph glyph-name="Ograve" unicode="&#xd2;" 
d="M318 737l-300 -74l-14 44l301 78z" />
    <glyph glyph-name="Oacute" unicode="&#xd3;" 
d="M318 836l-300 -75l-14 45l301 78zM318 737l-300 -74l-14 44l301 78z" />
    <glyph glyph-name="Ocircumflex" unicode="&#xd4;" 
d="M316 813q0 -74 -96 -100l-205 -49l-12 43q79 15 142 40q-24 29 -24 62q0 30 30 62q14 14 30 21.5t32 7.5q37 0 67 -24t36 -63zM263 806q0 42 -45 42q-15 0 -32 -12q-13 -13 -13 -30t14 -30q14 -11 31 -13q41 0 45 43z" />
    <glyph glyph-name="Otilde" unicode="&#xd5;" 
d="M327 813q0 -74 -96 -100l-205 -49l-12 43q48 12 48 54q0 23 -16 23q-6 0 -32 -12l-21 31q26 37 61 37q47 0 47 -50q0 -36 -22 -67l77 24q-24 29 -24 62q0 30 30 62q14 14 30 21.5t32 7.5q37 0 67 -24t36 -63zM274 806q0 42 -45 42q-15 0 -32 -12q-13 -13 -13 -30t14 -30
q14 -11 31 -13q41 0 45 43z" />
    <glyph glyph-name="Odieresis" unicode="&#xd6;" 
d="M260 707q0 -45 -31 -76q-24 -24 -69 -24q-81 0 -81 78q0 46 23 82q28 43 70 43q40 0 63 -32q25 -31 25 -71zM226 696q0 14 -28 41q-20 22 -48 22q-41 0 -41 -52q0 -43 54 -43q60 0 63 32z" />
    <glyph glyph-name="multiply" unicode="&#xd7;" 
d="M201 822l-18 -192h-32l-21 192h71z" />
    <glyph glyph-name="Oslash" unicode="&#xd8;" 
d="M323 774q0 -30 -17.5 -54.5t-49.5 -24.5q-54 0 -85 44q-33 -73 -102 -73q-27 0 -46 22t-19 50q0 40 25 99l37 -19q-10 -28 -16 -56q0 -39 30 -39q61 0 61 105l48 27q0 -104 55 -104q33 0 33 36q0 18 -11 35l-17 27l38 29q36 -53 36 -104z" />
    <glyph glyph-name="Ugrave" unicode="&#xd9;" 
d="M323 899q0 -30 -17.5 -54.5t-49.5 -24.5q-56 0 -85 44q-33 -74 -102 -74q-25 0 -47 22q-18 23 -18 52q0 40 25 97l37 -18q-10 -28 -16 -56q0 -39 30 -39q61 0 61 105l48 26q0 -103 55 -103q33 0 33 36q0 19 -11 33l-17 29l38 29q36 -53 36 -104zM329 737l-300 -74l-14 44
l301 78z" />
    <glyph glyph-name="Uacute" unicode="&#xda;" 
d="M325 960l-301 -74l-14 45l300 78zM323 774q0 -30 -17.5 -54.5t-49.5 -24.5q-54 0 -85 44q-33 -73 -102 -73q-27 0 -46 22t-19 50q0 40 25 99l37 -19q-10 -28 -16 -56q0 -39 30 -39q61 0 61 105l48 27q0 -104 55 -104q33 0 33 36q0 18 -11 35l-17 27l38 29q36 -53 36 -104
z" />
    <glyph glyph-name="Ucircumflex" unicode="&#xdb;" 
d="M327 1031q0 -74 -96 -100l-205 -49l-12 43q80 15 142 39q-24 30 -24 62q0 34 29 63t63 29q37 0 70 -26t33 -61zM323 774q0 -30 -17.5 -54.5t-49.5 -24.5q-54 0 -85 44q-33 -73 -102 -73q-27 0 -46 22t-19 50q0 40 25 99l37 -19q-10 -28 -16 -56q0 -39 30 -39q61 0 61 105
l48 27q0 -104 55 -104q33 0 33 36q0 18 -11 35l-17 27l38 29q36 -53 36 -104zM274 1024q0 15 -13.5 28.5t-31.5 13.5q-17 0 -31 -12.5t-14 -29.5q0 -16 14 -30q14 -11 31 -13q11 0 32 12q7 10 13 31z" />
    <glyph glyph-name="Udieresis" unicode="&#xdc;" 
d="M329 1054l-300 -75l-14 45l301 78zM329 956l-300 -75l-14 44l301 78zM323 774q0 -30 -17.5 -54.5t-49.5 -24.5q-54 0 -85 44q-33 -73 -102 -73q-27 0 -46 22t-19 50q0 40 25 99l37 -19q-10 -28 -16 -56q0 -39 30 -39q61 0 61 105l48 27q0 -104 55 -104q33 0 33 36
q0 18 -11 35l-17 27l38 29q36 -53 36 -104z" />
    <glyph glyph-name="Yacute" unicode="&#xdd;" 
d="M323 998q0 -75 -67 -81q-51 0 -85 46q-33 -74 -102 -74q-27 0 -46 22t-19 50q0 40 25 99l37 -18q-10 -28 -16 -56q0 -40 30 -40q61 0 61 106l48 26q0 -104 55 -104q33 0 33 36q0 19 -11 34l-17 29l38 28q36 -53 36 -103zM329 836l-300 -75l-14 45l301 78zM329 737
l-300 -74l-14 44l301 78z" />
    <glyph glyph-name="Thorn" unicode="&#xde;" 
d="M327 1031q0 -74 -96 -100l-205 -49l-12 43q48 12 48 54q0 21 -16 24q-12 0 -32 -14l-21 32q28 37 61 37q47 0 47 -50q0 -38 -22 -67l77 23q-24 30 -24 62q0 34 29 63t63 29q37 0 70 -26t33 -61zM323 774q0 -30 -17.5 -54.5t-49.5 -24.5q-54 0 -85 44q-33 -73 -102 -73
q-27 0 -46 22t-19 50q0 40 25 99l37 -19q-10 -28 -16 -56q0 -39 30 -39q61 0 61 105l48 27q0 -104 55 -104q33 0 33 36q0 18 -11 35l-17 27l38 29q36 -53 36 -104zM274 1024q0 15 -13.5 28.5t-31.5 13.5q-17 0 -31 -12.5t-14 -29.5q0 -16 14 -30q14 -11 31 -13q11 0 32 12
q7 10 13 31z" />
    <glyph glyph-name="germandbls" unicode="&#xdf;" 
d="M318 -498l-300 -75l-14 44l301 79z" />
    <glyph glyph-name="agrave" unicode="&#xe0;" 
d="M325 -498l-301 -75l-14 44l300 79zM325 -597l-301 -75l-14 45l300 78z" />
    <glyph glyph-name="aacute" unicode="&#xe1;" 
d="M235 558h-187v56h30q-3 33 34 70l59 59l39 -40l-50 -49q-15 -15 -16 -26q0 -14 28 -14h63v-56z" />
    <glyph glyph-name="acircumflex" unicode="&#xe2;" 
d="M325 393h-187v56h30q-3 33 34 70l59 59l39 -40l-50 -49q-15 -15 -16 -26q0 -14 28 -14h63v-56z" />
    <glyph glyph-name="atilde" unicode="&#xe3;" 
d="M300 -277h-187v56h30q-3 33 34 70l59 59l39 -40l-50 -49q-15 -15 -16 -26q0 -14 28 -14h63v-56z" />
    <glyph glyph-name="adieresis" unicode="&#xe4;" 
d="M339 500q0 -24 -17.5 -42t-42.5 -18t-43 17q-17 19 -17 43q0 26 17.5 43.5t42.5 17.5q24 0 42 -17.5t18 -43.5zM202 500q0 -24 -17.5 -42t-41.5 -18q-25 0 -43 17.5t-18 42.5q0 26 17.5 43.5t43.5 17.5q23 0 41 -18.5t18 -42.5z" />
    <glyph glyph-name="aring" unicode="&#xe5;" 
d="M9 -700q0 -24 -17.5 -42t-42.5 -18t-43 17q-17 19 -17 43q0 26 17.5 43.5t42.5 17.5q24 0 42 -17.5t18 -43.5zM-128 -700q0 -24 -17.5 -42t-41.5 -18q-25 0 -43 17.5t-18 42.5q0 26 17.5 43.5t43.5 17.5q23 0 41 -18.5t18 -42.5z" />
    <glyph glyph-name="ntilde" unicode="&#xf1;" horiz-adv-x="718" 
d="M531 442q0 -22 -17.5 -41t-42.5 -19t-43 17q-17 19 -17 43q0 25 17.5 42.5t42.5 17.5q24 0 42 -17.5t18 -42.5zM718 0h-42q-67 0 -157 21q-91 -32 -175 -32q-140 0 -190 72l-51 -36q-48 -25 -103 -25v100q70 0 156 73q24 21 36 21q6 0 14 -18q6 -31 8 -34q21 -54 121 -64
q-87 41 -87 94q0 57 89 87l65 16q35 6 71 6q209 0 209 -104q0 -35 -27 -77h63v-100zM522 115q62 27 62 53q0 34 -84 34q-48 0 -95 -9t-47 -28q0 -18 69 -36l54 -11z" />
    <glyph glyph-name="ograve" unicode="&#xf2;" horiz-adv-x="681" 
d="M566 360q0 -24 -18 -42t-43 -18q-24 0 -41.5 18.5t-17.5 41.5q0 26 17 43.5t42 17.5q23 0 42 -17.5t19 -43.5zM681 120q0 -86 -83 -122q-57 -22 -159 -22l-59 2l-55 2l-24 -63h-103l25 83q-46 9 -70 60q-74 -60 -153 -60v100q64 0 163 80q23 18 34 18t17 -22l8 -34l7 -16
q14 -26 47 -26q98 158 240 158q83 0 129 -50q36 -39 36 -88zM581 115q0 43 -74 43q-60 0 -127 -82q201 0 201 39z" />
    <glyph glyph-name="oacute" unicode="&#xf3;" horiz-adv-x="539" 
d="M539 142q0 -142 -263 -142h-175v501h99v-288q86 71 168 71q70 0 120.5 -37t50.5 -105zM439 142q0 43 -74 43q-35 0 -87 -26.5t-79 -58.5q240 0 240 42z" />
    <glyph glyph-name="ocircumflex" unicode="&#xf4;" horiz-adv-x="592" 
d="M592 0q-63 0 -107 43q-71 -43 -276 -43h-108v501h99v-288q86 71 168 71q84 0 133 -49q37 -40 37 -78q0 -22 17 -39.5t37 -17.5v-100zM439 142q0 43 -74 43q-35 0 -87 -26.5t-79 -58.5q240 0 240 42z" />
    <glyph glyph-name="otilde" unicode="&#xf5;" horiz-adv-x="542" 
d="M542 0q-63 0 -107 43q-72 -43 -275 -43h-160v100h51v401h99v-288q85 71 169 71q83 0 132 -49q37 -40 37 -78q0 -22 17 -39.5t37 -17.5v-100zM389 142q0 43 -74 43q-35 0 -87 -26.5t-79 -58.5q240 0 240 42z" />
    <glyph glyph-name="odieresis" unicode="&#xf6;" horiz-adv-x="488" 
d="M488 142q0 -142 -263 -142h-225v100h50v401h99v-288q86 71 169 71q65 0 117.5 -38.5t52.5 -103.5zM389 142q0 43 -74 43q-35 0 -87 -26.5t-79 -58.5q240 0 240 42z" />
    <glyph glyph-name="divide" unicode="&#xf7;" horiz-adv-x="350" 
d="M350 0h-57q-39 0 -92 41q-27 -41 -124 -41h-77v100h129q3 23 -31 41q-27 12 -55 12v100h282v-101h-82q58 -52 80 -52h27v-100z" />
    <glyph glyph-name="oslash" unicode="&#xf8;" horiz-adv-x="363" 
d="M260 299h48v-99h-34q-105 0 -105 -47q0 -24 29 -40l19 -8q10 -3 31 -5h115v-100h-362l-1 100h80q-6 18 -6 39q0 72 58 118q53 42 128 42z" />
    <glyph glyph-name="ugrave" unicode="&#xf9;" horiz-adv-x="469" 
d="M312 466q0 -22 -17.5 -41t-42.5 -19t-43 17q-17 19 -17 43q0 25 17.5 42.5t42.5 17.5q24 0 42 -17.5t18 -42.5zM192 54q-49 6 -83 43q-31 37 -31 88q0 71 58 119q52 41 128 41h48v-99h-34q-105 0 -105 -46q0 -22 27 -40q23 -14 49 -14q20 0 43 12l102 86l75 -66
q-39 -31 -77 -65.5t-79 -76.5q-113 -116 -113 -165q0 -75 88 -109q28 -9 68 -15q27 -3 41 -4t44 -1v-102q-188 0 -278 83q-62 57 -62 131q0 87 91 200z" />
    <glyph glyph-name="uacute" unicode="&#xfa;" horiz-adv-x="468" 
d="M340 360q0 -24 -17.5 -42t-42.5 -18t-43 17q-17 19 -17 43q0 26 17 43.5t43 17.5q24 0 42 -17.5t18 -43.5zM217 97q0 56 -80 56v100h281v-101h-80l33 -31q23 -21 45 -21h52v-100h-68q-39 0 -95 42q-27 -27 -63 -75q-42 -57 -42 -81q0 -74 89 -110q28 -9 68 -15
q27 -3 41 -4t43 -1v-101q-186 0 -278 82q-61 58 -61 131q0 105 115 229z" />
    <glyph glyph-name="ucircumflex" unicode="&#xfb;" horiz-adv-x="350" 
d="M240 360q0 -24 -17.5 -42t-42.5 -18t-43 17.5t-18 42.5q0 23 18 42t43 19q24 0 42 -18t18 -43zM350 0h-57q-39 0 -92 41q-27 -41 -124 -41h-77v100h129q3 23 -31 41q-27 12 -55 12v100h282v-101h-82q58 -52 80 -52h27v-100z" />
    <glyph glyph-name="udieresis" unicode="&#xfc;" horiz-adv-x="363" 
d="M260 299h48v-99h-34q-105 0 -105 -47q0 -24 29 -40l19 -8q10 -3 31 -5h115v-100h-362l-1 100h80q-6 18 -6 39q0 72 58 118q53 42 128 42zM308 466q0 -22 -17.5 -41t-42.5 -19t-43 17q-17 19 -17 43q0 25 17.5 42.5t42.5 17.5q24 0 42 -17.5t18 -42.5z" />
    <glyph glyph-name="yacute" unicode="&#xfd;" horiz-adv-x="1089" 
d="M977 561q0 -22 -17.5 -41t-42.5 -19t-43 17q-17 19 -17 43q0 25 17.5 42.5t42.5 17.5q24 0 42 -17.5t18 -42.5zM616 -50q-75 0 -135.5 7.5t-133 26.5t-134.5 46q-30 13 -57.5 28t-54.5 34v122q87 -78 242 -124q143 -40 270 -40q333 0 378 123q9 24 9 46q0 28 -18 51.5
t-46 23.5q-16 0 -40 -15l-16 -15q-6 -8 -6 -17q0 -47 75 -47q9 -9 10 -20q0 -23 -48 -59q-53 0 -89 30q-33 30 -33 87q0 65 45.5 108.5t109.5 43.5q66 0 108 -48q38 -44 38 -113q0 -11 -0.5 -24t-7.5 -32q-42 -135 -190 -187q-102 -36 -276 -36z" />
    <glyph glyph-name="thorn" unicode="&#xfe;" horiz-adv-x="1276" 
d="M1141 509q0 -22 -17.5 -41t-42.5 -19q-24 0 -41.5 18.5t-17.5 41.5q0 25 17 42.5t42 17.5q24 0 42 -17.5t18 -42.5zM1277 0h-80q-59 0 -112 28q-156 -78 -469 -78q-75 0 -135.5 7.5t-133 26.5t-134.5 46q-30 13 -57.5 28t-54.5 34v122q87 -78 242 -124q143 -40 270 -40
q299 0 381 50q-50 48 -50 112q0 60 41 98.5t101 38.5t101 -39.5t41 -99.5t-51 -110h100v-100zM1083 259q-21 0 -39 -15t-18 -36q0 -34 59 -72q57 26 57 64q0 25 -17 42t-42 17z" />
    <glyph glyph-name="ydieresis" unicode="&#xff;" horiz-adv-x="384" 
d="M257 509q0 -22 -18 -43q-19 -17 -42 -17q-25 0 -43 17q-17 19 -17 43q0 25 17 42.5t43 17.5q24 0 42 -17.5t18 -42.5zM100 0h-100v100h100q-49 49 -49 112q0 58 40.5 97.5t101.5 39.5q60 0 101 -39.5t41 -99.5t-51 -110h100v-100h-80q-60 0 -112 28q-59 -28 -92 -28z
M190 259q-38 0 -56 -41l-2 -10q0 -33 60 -72q57 26 57 64q0 23 -17.5 41t-41.5 18z" />
    <glyph glyph-name="SOH" horiz-adv-x="1012" 
d="M859 465l-65 -65l-6 -2l-5 2l-65 65l-2 6l2 5l70 69l6 -4l65 -65q6 -3 0 -11zM859 341q6 -6 0 -13l-65 -59q-3 -3 -11 0l-64 59l-3 7l2 6l64 71q6 6 12 0zM861 202q-29 -90 -130 -135v-60q-4 -6 -8 -8h-48q-15 0 -41 21l-42 41q-37 -31 -124 -49l-74 -13q-6 4 -8 8v93
q0 12 15 17l3 -5l8 -3q6 -1 7 -2l35 4q54 6 79 28q-44 58 -56 135l5 8l34 27l35 30q3 6 9 4l5 -9q0 -93 79 -188q5 3 5 34v226l3 5l66 65q3 5 9 3l4 -8v-291q0 -23 12 -34h39l3 1l-14 16q-21 24 -50 33l-5 6l3 8l63 71q3 3 10 1q23 -11 68 -73zM470 103q0 -12 -37 -12h-21
q-21 0 -26 9l3 376l67 65q3 6 9 4l5 -9v-433zM293 401l-65 -72l-6 -3l-7 3l-65 72q-3 5 2 10l66 65l3 4l8 -4l65 -65l3 -5zM402 69q-25 -34 -69 -68l-9 1q-153 144 -175 271l5 9l28 27l36 30q3 6 9 4l4 -9q0 -89 78 -188q2 5 4.5 12t6.5 22v226l4 5l65 65q3 3 10 3l4 -8z
M842 471l-54 55l-54 -55l54 -53zM842 336l-54 58l-54 -58l54 -50zM844 202q-29 43 -54 62l-54 -57q21 -9 46 -34q15 -15 16 -29q0 -11 -16 -14h-42q-26 12 -26 50v272l-48 -50v-222q0 -50 -27 -50l-5 3q-85 103 -85 185l-23 -20l-33 -27q12 -66 58 -128q5 -3 -1 -10
q-23 -24 -94 -38l-30 -2h-23v-76l63 10q79 12 121 51q3 6 10 0l48 -47q15 -15 30 -15h39v57q0 6 5 7q92 39 125 122zM453 110v407l-50 -50v-354q0 -6 16 -7h14zM277 405l-56 55l-52 -55l52 -58zM386 75v377l-48 -50l-1 -223q-9 -49 -33 -49l-5 3q-84 99 -84 185l-22 -23
l-28 -25q21 -112 165 -253q16 13 56 58z" />
    <glyph glyph-name="c128" horiz-adv-x="1012" 
 />
    <glyph glyph-name="c129" horiz-adv-x="1012" 
 />
  </font>
</defs>
</svg>
